<?xml version="1.0" encoding="UTF-8"?>
<!-- Generator: CustomSymbols v2.7.4.50 by @serious_bret https://bretlester.com/app_content/CustomSymbols/ -->
<!-- Guides: Left/Right -0.161/-0.161 Cap/Base -0.186/-0.186 -->
<!-- Settings: RefScale 1.0 Min/Max Stroke Scales 0.5/2.2100000381469727 -->
<!DOCTYPE svg
PUBLIC "-//W3C//DTD SVG 1.1//EN"
       "http://www.w3.org/Graphics/SVG/1.1/DTD/svg11.dtd">
<svg version="1.1" xmlns="http://www.w3.org/2000/svg" xmlns:xlink="http://www.w3.org/1999/xlink" width="3300" height="2200">
<![CDATA[<svg xmlns="http://www.w3.org/2000/svg" height="24" width="24" viewBox="0 0 24 24"><title>money time</title><g stroke-linecap="square" transform="translate(0.5 0.5)" fill="#F7F7F7" stroke-linejoin="miter" class="nc-icon-wrapper" stroke-miterlimit="10"><path data-cap="butt" fill="none" stroke="#F7F7F7" stroke-width="1" d="M11,12v4c0,1.657,2.686,3,6,3 s6-1.343,6-3v-4" stroke-linecap="butt"></path> <path data-cap="butt" fill="none" stroke="#F7F7F7" stroke-width="1" d="M11,16v4c0,1.657,2.686,3,6,3 s6-1.343,6-3v-4" stroke-linecap="butt"></path> <ellipse fill="none" stroke="#F7F7F7" stroke-width="1" cx="17" cy="12" rx="6" ry="3"></ellipse> <polyline data-color="color-2" fill="none" stroke="#F7F7F7" stroke-width="1" points=" 8,5 8,8 5,8 "></polyline> <path data-color="color-2" fill="none" stroke="#F7F7F7" stroke-width="1" d="M8,15 c-3.866,0-7-3.134-7-7s3.134-7,7-7c3.171,0,5.85,2.109,6.71,5.001"></path></g></svg>]]>
 <g id="Notes">
  <rect height="2200" id="artboard" style="fill:white;opacity:1" width="3300" x="0" y="0"/>
  <line id="" style="fill:none;stroke:black;opacity:1;stroke-width:0.5;" x1="263" x2="3036" y1="292" y2="292"/>
  <text id="reftext1" style="stroke:none;fill:black;font-family:-apple-system,&quot;SF Pro Display&quot;,&quot;SF Pro Text&quot;,Helvetica,sans-serif;font-weight:bold;" transform="matrix(1 0 0 1 263 322)">Weight/Scale Variations</text>
  <text id="reftext2" style="stroke:none;fill:black;font-family:-apple-system,&quot;SF Pro Display&quot;,&quot;SF Pro Text&quot;,Helvetica,sans-serif;text-anchor:middle;" transform="matrix(1 0 0 1 559.711 322)">Ultralight</text>
  <text style="stroke:none;fill:black;font-family:-apple-system,&quot;SF Pro Display&quot;,&quot;SF Pro Text&quot;,Helvetica,sans-serif;text-anchor:middle;" transform="matrix(1 0 0 1 856.422 322)">Thin</text>
  <text style="stroke:none;fill:black;font-family:-apple-system,&quot;SF Pro Display&quot;,&quot;SF Pro Text&quot;,Helvetica,sans-serif;text-anchor:middle;" transform="matrix(1 0 0 1 1153.13 322)">Light</text>
  <text style="stroke:none;fill:black;font-family:-apple-system,&quot;SF Pro Display&quot;,&quot;SF Pro Text&quot;,Helvetica,sans-serif;text-anchor:middle;" transform="matrix(1 0 0 1 1449.84 322)">Regular</text>
  <text style="stroke:none;fill:black;font-family:-apple-system,&quot;SF Pro Display&quot;,&quot;SF Pro Text&quot;,Helvetica,sans-serif;text-anchor:middle;" transform="matrix(1 0 0 1 1746.56 322)">Medium</text>
  <text style="stroke:none;fill:black;font-family:-apple-system,&quot;SF Pro Display&quot;,&quot;SF Pro Text&quot;,Helvetica,sans-serif;text-anchor:middle;" transform="matrix(1 0 0 1 2043.27 322)">Semibold</text>
  <text style="stroke:none;fill:black;font-family:-apple-system,&quot;SF Pro Display&quot;,&quot;SF Pro Text&quot;,Helvetica,sans-serif;text-anchor:middle;" transform="matrix(1 0 0 1 2339.98 322)">Bold</text>
  <text style="stroke:none;fill:black;font-family:-apple-system,&quot;SF Pro Display&quot;,&quot;SF Pro Text&quot;,Helvetica,sans-serif;text-anchor:middle;" transform="matrix(1 0 0 1 2636.69 322)">Heavy</text>
  <text style="stroke:none;fill:black;font-family:-apple-system,&quot;SF Pro Display&quot;,&quot;SF Pro Text&quot;,Helvetica,sans-serif;text-anchor:middle;" transform="matrix(1 0 0 1 2933.4 322)">Black</text>
  <line id="" style="fill:none;stroke:black;opacity:1;stroke-width:0.5;" x1="263" x2="3036" y1="1903" y2="1903"/>
  <g id="" transform="matrix(1 0 0 1 263 1933)">
   <path d="M9.24805 0.830078C13.5547 0.830078 17.1387-2.74414 17.1387-7.05078C17.1387-11.3574 13.5449-14.9316 9.23828-14.9316C4.94141-14.9316 1.36719-11.3574 1.36719-7.05078C1.36719-2.74414 4.95117 0.830078 9.24805 0.830078ZM9.24805-0.654297C5.70312-0.654297 2.87109-3.49609 2.87109-7.05078C2.87109-10.6055 5.69336-13.4473 9.23828-13.4473C12.793-13.4473 15.6348-10.6055 15.6445-7.05078C15.6543-3.49609 12.8027-0.654297 9.24805-0.654297ZM6.39648-6.31836L8.50586-6.31836L8.50586-4.19922C8.50586-3.75977 8.79883-3.45703 9.22852-3.45703C9.67773-3.45703 9.9707-3.75977 9.9707-4.19922L9.9707-6.31836L12.0996-6.31836C12.5391-6.31836 12.8418-6.61133 12.8418-7.04102C12.8418-7.48047 12.5391-7.7832 12.0996-7.7832L9.9707-7.7832L9.9707-9.89258C9.9707-10.3418 9.67773-10.6445 9.22852-10.6445C8.79883-10.6445 8.50586-10.3418 8.50586-9.89258L8.50586-7.7832L6.39648-7.7832C5.94727-7.7832 5.64453-7.48047 5.64453-7.04102C5.64453-6.61133 5.94727-6.31836 6.39648-6.31836Z"/>
  </g>
  <g id="" transform="matrix(1 0 0 1 281.506 1933)">
   <path d="M11.709 2.91016C17.1582 2.91016 21.6699-1.61133 21.6699-7.05078C21.6699-12.5 17.1484-17.0117 11.6992-17.0117C6.25977-17.0117 1.74805-12.5 1.74805-7.05078C1.74805-1.61133 6.26953 2.91016 11.709 2.91016ZM11.709 1.25C7.09961 1.25 3.41797-2.44141 3.41797-7.05078C3.41797-11.6602 7.08984-15.3516 11.6992-15.3516C16.3086-15.3516 20-11.6602 20.0098-7.05078C20.0195-2.44141 16.3184 1.25 11.709 1.25ZM7.98828-6.23047L10.8789-6.23047L10.8789-3.32031C10.8789-2.83203 11.2109-2.5 11.6895-2.5C12.1777-2.5 12.5195-2.83203 12.5195-3.32031L12.5195-6.23047L15.4297-6.23047C15.918-6.23047 16.25-6.5625 16.25-7.04102C16.25-7.5293 15.918-7.87109 15.4297-7.87109L12.5195-7.87109L12.5195-10.7617C12.5195-11.2695 12.1777-11.6016 11.6895-11.6016C11.2109-11.6016 10.8789-11.2598 10.8789-10.7617L10.8789-7.87109L7.98828-7.87109C7.48047-7.87109 7.14844-7.5293 7.14844-7.04102C7.14844-6.5625 7.49023-6.23047 7.98828-6.23047Z"/>
  </g>
  <g id="" transform="matrix(1 0 0 1 304.924 1933)">
   <path d="M14.9707 5.66406C21.9336 5.66406 27.6953-0.0976562 27.6953-7.05078C27.6953-14.0137 21.9238-19.7754 14.9609-19.7754C8.00781-19.7754 2.25586-14.0137 2.25586-7.05078C2.25586-0.0976562 8.01758 5.66406 14.9707 5.66406ZM14.9707 3.84766C8.93555 3.84766 4.08203-1.01562 4.08203-7.05078C4.08203-13.0957 8.92578-17.9492 14.9609-17.9492C21.0059-17.9492 25.8594-13.0957 25.8691-7.05078C25.8789-1.01562 21.0156 3.84766 14.9707 3.84766ZM10.0586-6.14258L14.0625-6.14258L14.0625-2.12891C14.0625-1.5918 14.4336-1.2207 14.9512-1.2207C15.4883-1.2207 15.8594-1.5918 15.8594-2.12891L15.8594-6.14258L19.8828-6.14258C20.4102-6.14258 20.791-6.51367 20.791-7.03125C20.791-7.56836 20.4199-7.94922 19.8828-7.94922L15.8594-7.94922L15.8594-11.9531C15.8594-12.5098 15.4883-12.8809 14.9512-12.8809C14.4336-12.8809 14.0625-12.5 14.0625-11.9531L14.0625-7.94922L10.0586-7.94922C9.50195-7.94922 9.13086-7.56836 9.13086-7.03125C9.13086-6.51367 9.51172-6.14258 10.0586-6.14258Z"/>
  </g>
  <text style="stroke:none;fill:black;font-family:-apple-system,&quot;SF Pro Display&quot;,&quot;SF Pro Text&quot;,Helvetica,sans-serif;font-weight:bold;" transform="matrix(1 0 0 1 263 1953)">Design Variations</text>
  <text style="stroke:none;fill:black;font-family:-apple-system,&quot;SF Pro Display&quot;,&quot;SF Pro Text&quot;,Helvetica,sans-serif;" transform="matrix(1 0 0 1 263 1971)">Symbols are supported in up to nine weights and three scales.</text>
  <text style="stroke:none;fill:black;font-family:-apple-system,&quot;SF Pro Display&quot;,&quot;SF Pro Text&quot;,Helvetica,sans-serif;" transform="matrix(1 0 0 1 263 1989)">For optimal layout with text and other symbols, vertically align</text>
  <text style="stroke:none;fill:black;font-family:-apple-system,&quot;SF Pro Display&quot;,&quot;SF Pro Text&quot;,Helvetica,sans-serif;" transform="matrix(1 0 0 1 263 2007)">symbols with the adjacent text.</text>
  <line id="" style="fill:none;stroke:#00AEEF;stroke-width:0.5;opacity:1.0;" x1="776" x2="776" y1="1919" y2="1933"/>
  <g id="" transform="matrix(1 0 0 1 776 1933)">
   <path d="M3.31055 0.126953C3.82812 0.126953 4.08203-0.0683594 4.26758-0.605469L5.52734-4.0625L11.2891-4.0625L12.5488-0.605469C12.7344-0.0683594 12.9883 0.126953 13.4961 0.126953C14.0137 0.126953 14.3457-0.185547 14.3457-0.673828C14.3457-0.839844 14.3164-0.986328 14.2383-1.20117L9.6582-13.3887C9.43359-13.9941 9.0332-14.2871 8.4082-14.2871C7.80273-14.2871 7.39258-13.9941 7.17773-13.3984L2.59766-1.19141C2.51953-0.976562 2.49023-0.830078 2.49023-0.664062C2.49023-0.175781 2.80273 0.126953 3.31055 0.126953ZM6.00586-5.53711L8.37891-12.1094L8.42773-12.1094L10.8008-5.53711Z"/>
  </g>
  <line id="" style="fill:none;stroke:#00AEEF;stroke-width:0.5;opacity:1.0;" x1="792.836" x2="792.836" y1="1919" y2="1933"/>
  <text style="stroke:none;fill:black;font-family:-apple-system,&quot;SF Pro Display&quot;,&quot;SF Pro Text&quot;,Helvetica,sans-serif;font-weight:bold;" transform="matrix(1 0 0 1 776 1953)">Margins</text>
  <text style="stroke:none;fill:black;font-family:-apple-system,&quot;SF Pro Display&quot;,&quot;SF Pro Text&quot;,Helvetica,sans-serif;" transform="matrix(1 0 0 1 776 1971)">Leading and trailing margins on the left and right side of each symbol</text>
  <text style="stroke:none;fill:black;font-family:-apple-system,&quot;SF Pro Display&quot;,&quot;SF Pro Text&quot;,Helvetica,sans-serif;" transform="matrix(1 0 0 1 776 1989)">can be adjusted by modifying the x-location of the margin guidelines.</text>
  <text style="stroke:none;fill:black;font-family:-apple-system,&quot;SF Pro Display&quot;,&quot;SF Pro Text&quot;,Helvetica,sans-serif;" transform="matrix(1 0 0 1 776 2007)">Modifications are automatically applied proportionally to all</text>
  <text style="stroke:none;fill:black;font-family:-apple-system,&quot;SF Pro Display&quot;,&quot;SF Pro Text&quot;,Helvetica,sans-serif;" transform="matrix(1 0 0 1 776 2025)">scales and weights.</text>
  <g id="" transform="matrix(1 0 0 1 1289 1933)">
   <path d="M2.8418 1.86523L4.54102 3.57422C5.40039 4.44336 6.38672 4.38477 7.31445 3.35938L17.4902-7.85156C17.7539-7.76367 18.0273-7.7832 18.3398-7.8418L19.4043-8.03711L20.0684-7.36328L20.0293-6.80664C19.9902-6.30859 20.1172-5.92773 20.6055-5.44922L21.3672-4.70703C21.8457-4.22852 22.4609-4.19922 22.9297-4.66797L25.8398-7.58789C26.3086-8.05664 26.2891-8.65234 25.8105-9.13086L25.0391-9.89258C24.5605-10.3711 24.1895-10.5273 23.7109-10.4883L23.1348-10.4395L22.4902-11.0742L22.7344-12.1973C22.8613-12.7637 22.7051-13.2031 22.1191-13.7891L19.9219-15.9766C16.582-19.2969 12.1484-19.2188 9.25781-16.3281C8.83789-15.918 8.80859-15.3418 9.04297-14.9512C9.27734-14.5898 9.73633-14.3555 10.3809-14.5215C11.8457-14.8633 13.3691-14.9219 14.7949-13.9844L14.209-12.5293C14.0137-12.0508 13.9844-11.6504 14.1113-11.2891L3.04688-0.898438C2.06055 0.0195312 1.98242 0.996094 2.8418 1.86523ZM10.752-15.957C13.1836-17.7344 16.4746-17.4316 18.7012-15.2051L21.1328-12.793C21.3672-12.5586 21.4062-12.373 21.3379-12.0312L21.0156-10.5469L22.5195-9.0625L23.5059-9.12109C23.7598-9.13086 23.8379-9.11133 24.0332-8.91602L24.6094-8.33984L22.168-5.89844L21.5918-6.47461C21.3965-6.66992 21.3672-6.74805 21.377-7.01172L21.4453-7.98828L19.9512-9.47266L18.4277-9.21875C18.1055-9.15039 17.959-9.17969 17.7148-9.41406L15.7129-11.416C15.459-11.6504 15.4297-11.8164 15.5859-12.1875L16.4648-14.2773C14.9023-15.7324 12.8711-16.3574 10.8398-15.7617C10.6836-15.7227 10.625-15.8496 10.752-15.957ZM5.27344 2.30469L4.10156 1.14258C3.63281 0.683594 3.74023 0.341797 4.14062-0.0195312L14.9512-10.1953L16.416-8.71094L6.42578 2.27539C6.07422 2.67578 5.74219 2.77344 5.27344 2.30469Z"/>
  </g>
  <text style="stroke:none;fill:black;font-family:-apple-system,&quot;SF Pro Display&quot;,&quot;SF Pro Text&quot;,Helvetica,sans-serif;font-weight:bold;" transform="matrix(1 0 0 1 1289 1953)">Exporting</text>
  <text style="stroke:none;fill:black;font-family:-apple-system,&quot;SF Pro Display&quot;,&quot;SF Pro Text&quot;,Helvetica,sans-serif;" transform="matrix(1 0 0 1 1289 1971)">Symbols should be outlined when exporting to ensure the</text>
  <text style="stroke:none;fill:black;font-family:-apple-system,&quot;SF Pro Display&quot;,&quot;SF Pro Text&quot;,Helvetica,sans-serif;" transform="matrix(1 0 0 1 1289 1989)">design is preserved when submitting to Xcode.</text>
  <text id="template-version" style="stroke:none;fill:black;font-family:-apple-system,&quot;SF Pro Display&quot;,&quot;SF Pro Text&quot;,Helvetica,sans-serif;text-anchor:end;" transform="matrix(1 0 0 1 3036 1933)">Template v.2.0</text>
  <text style="stroke:none;fill:black;font-family:-apple-system,&quot;SF Pro Display&quot;,&quot;SF Pro Text&quot;,Helvetica,sans-serif;text-anchor:end;" transform="matrix(1 0 0 1 3036 1951)">Requires Xcode 12 or greater</text>
  <text style="stroke:none;fill:black;font-family:-apple-system,&quot;SF Pro Display&quot;,&quot;SF Pro Text&quot;,Helvetica,sans-serif;" transform="matrix(1 0 0 1 263 726)">Small</text>
  <text style="stroke:none;fill:black;font-family:-apple-system,&quot;SF Pro Display&quot;,&quot;SF Pro Text&quot;,Helvetica,sans-serif;" transform="matrix(1 0 0 1 263 1156)">Medium</text>
  <text style="stroke:none;fill:black;font-family:-apple-system,&quot;SF Pro Display&quot;,&quot;SF Pro Text&quot;,Helvetica,sans-serif;" transform="matrix(1 0 0 1 263 1586)">Large</text>
 </g>
 <g id="Guides">
  <g id="H-reference" style="fill:#27AAE1;stroke:none;" transform="matrix(1 0 0 1 339 696)">
   <path d="M0.976562 0L3.66211 0L12.9883-24.4629L45.752-24.4629L55.127 0L57.7637 0L30.6152-70.459L28.125-70.459ZM29.3457-67.1387L29.4434-67.1387L44.873-26.709L13.8672-26.709Z"/>
  </g>
  <line id="Baseline-S" style="fill:none;stroke:#27AAE1;opacity:1;stroke-width:0.5;" x1="263" x2="3036" y1="696" y2="696"/>
  <line id="Capline-S" style="fill:none;stroke:#27AAE1;opacity:1;stroke-width:0.5;" x1="263" x2="3036" y1="625.541" y2="625.541"/>
  <g id="H-reference" style="fill:#27AAE1;stroke:none;" transform="matrix(1 0 0 1 339 1126)">
   <path d="M0.976562 0L3.66211 0L12.9883-24.4629L45.752-24.4629L55.127 0L57.7637 0L30.6152-70.459L28.125-70.459ZM29.3457-67.1387L29.4434-67.1387L44.873-26.709L13.8672-26.709Z"/>
  </g>
  <line id="Baseline-M" style="fill:none;stroke:#27AAE1;opacity:1;stroke-width:0.5;" x1="263" x2="3036" y1="1126" y2="1126"/>
  <line id="Capline-M" style="fill:none;stroke:#27AAE1;opacity:1;stroke-width:0.5;" x1="263" x2="3036" y1="1055.54" y2="1055.54"/>
  <g id="H-reference" style="fill:#27AAE1;stroke:none;" transform="matrix(1 0 0 1 339 1556)">
   <path d="M0.976562 0L3.66211 0L12.9883-24.4629L45.752-24.4629L55.127 0L57.7637 0L30.6152-70.459L28.125-70.459ZM29.3457-67.1387L29.4434-67.1387L44.873-26.709L13.8672-26.709Z"/>
  </g>
  <line id="Baseline-L" style="fill:none;stroke:#27AAE1;opacity:1;stroke-width:0.5;" x1="263" x2="3036" y1="1556" y2="1556"/>
  <line id="Capline-L" style="fill:none;stroke:#27AAE1;opacity:1;stroke-width:0.5;" x1="263" x2="3036" y1="1485.54" y2="1485.54"/>
  <line id="left-margin" x1="1417.1839109477494" x2="1417.1839109477494" y1="1030.79" y2="1150.12" style="fill:none;stroke:#00AEEF;stroke-width:0.5;opacity:1.0;"/>
  <line id="right-margin" x1="1485.0760890522504" x2="1485.0760890522504" y1="1030.79" y2="1150.12" style="fill:none;stroke:#00AEEF;stroke-width:0.5;opacity:1.0;"/>
 </g>
 <g id="Symbols">
  <g id="Black-L" transform="matrix(1.0,0.0,0.0,1.0,2901.5556014543095,1487.6456209855594)">  <path data-cap="butt" stroke="none" stroke-width="1px" stroke-opacity="1" stroke-linecap="butt" fill-rule="nonzero" stroke-linejoin="miter" fill="#000000" fill-opacity="1" stroke-miterlimit="10" stroke-dasharray="none" d="M28.694,34.505L28.694,45.546C28.694,52.379,37.69,56.877,48.306,56.877C58.923,56.877,67.919,52.379,67.919,45.546L67.919,34.505L61.818,34.505L61.818,45.546C61.818,47.861,55.986,50.777,48.306,50.777C40.627,50.777,34.794,47.861,34.794,45.546L34.794,34.505L28.694,34.505Z"/>
  <path stroke-linecap="butt" fill-rule="nonzero" stroke="none" fill-opacity="1" stroke-width="1px" stroke-dasharray="none" data-cap="butt" stroke-linejoin="miter" fill="#000000" stroke-opacity="1" stroke-miterlimit="10" d="M28.694,45.546L28.694,56.588C28.694,63.421,37.69,67.919,48.306,67.919C58.923,67.919,67.919,63.421,67.919,56.588L67.919,45.546L61.818,45.546L61.818,56.588C61.818,58.902,55.986,61.818,48.306,61.818C40.627,61.818,34.794,58.902,34.794,56.588L34.794,45.546L28.694,45.546Z"/>
  <path rx="6" ry="3" stroke-width="1px" fill-rule="nonzero" fill="#000000" stroke-linejoin="miter" stroke-dasharray="none" stroke="none" cx="17" fill-opacity="1" stroke-linecap="square" cy="12" stroke-opacity="1" stroke-miterlimit="10" d="M61.818,34.505C61.818,36.819,55.985,39.735,48.306,39.735C40.628,39.735,34.794,36.819,34.794,34.505C34.794,32.19,40.628,29.274,48.306,29.274C55.985,29.274,61.818,32.19,61.818,34.505ZM67.919,34.505C67.919,27.672,58.922,23.173,48.306,23.173C37.691,23.173,28.694,27.672,28.694,34.505C28.694,41.337,37.691,45.836,48.306,45.836C58.922,45.836,67.919,41.337,67.919,34.505Z"/>
  <path fill-rule="nonzero" stroke-linecap="square" stroke-miterlimit="10" stroke-opacity="1" stroke-linejoin="miter" fill="#000000" stroke-dasharray="none" fill-opacity="1" data-color="color-2" stroke="none" stroke-width="1px" points=" 8,5 8,8 5,8 " d="M20.413,15.182L20.413,23.463L23.463,20.413L15.182,20.413L12.132,20.413L12.132,26.513L15.182,26.513L23.463,26.513L26.513,26.513L26.513,23.463L26.513,15.182L26.513,12.132L20.413,12.132L20.413,15.182Z"/>
  <path fill-opacity="1" stroke-linecap="square" data-color="color-2" stroke="none" stroke-width="1px" stroke-linejoin="miter" stroke-opacity="1" stroke-dasharray="none" fill-rule="nonzero" stroke-miterlimit="10" fill="#000000" d="M23.463,39.735C14.476,39.735,7.191,32.45,7.191,23.463C7.191,14.476,14.476,7.191,23.463,7.191C30.711,7.191,37.027,11.974,39.062,18.815L39.931,21.738L45.778,19.999L44.909,17.076C42.11,7.665,33.429,1.09,23.463,1.09C11.107,1.09,1.09,11.107,1.09,23.463C1.09,35.819,11.107,45.836,23.463,45.836L26.513,45.836L26.513,39.735L23.463,39.735Z"/>
</g>
  <g id="Heavy-L" transform="matrix(1.0,0.0,0.0,1.0,2604.8456014543094,1487.6456209855594)">  <path stroke-opacity="1" data-cap="butt" stroke-linejoin="miter" stroke-width="1px" fill="#000000" stroke="none" stroke-dasharray="none" fill-opacity="1" stroke-miterlimit="10" fill-rule="nonzero" stroke-linecap="butt" d="M29.028,34.505L29.028,45.546C29.028,52.132,37.851,56.543,48.306,56.543C58.762,56.543,67.585,52.132,67.585,45.546L67.585,34.505L62.152,34.505L62.152,45.546C62.152,48.108,56.147,51.111,48.306,51.111C40.466,51.111,34.46,48.108,34.46,45.546L34.46,34.505L29.028,34.505Z"/>
  <path stroke-linejoin="miter" stroke-linecap="butt" fill-opacity="1" fill="#000000" stroke-width="1px" fill-rule="nonzero" stroke-dasharray="none" stroke-miterlimit="10" stroke-opacity="1" stroke="none" data-cap="butt" d="M29.028,45.546L29.028,56.588C29.028,63.173,37.851,67.585,48.306,67.585C58.762,67.585,67.585,63.173,67.585,56.588L67.585,45.546L62.152,45.546L62.152,56.588C62.152,59.15,56.147,62.152,48.306,62.152C40.466,62.152,34.46,59.15,34.46,56.588L34.46,45.546L29.028,45.546Z"/>
  <path stroke-miterlimit="10" fill="#000000" stroke-opacity="1" fill-rule="nonzero" stroke-dasharray="none" stroke="none" rx="6" ry="3" stroke-linejoin="miter" stroke-linecap="square" cy="12" fill-opacity="1" cx="17" stroke-width="1px" d="M62.152,34.505C62.152,37.066,56.146,40.069,48.306,40.069C40.467,40.069,34.46,37.066,34.46,34.505C34.46,31.943,40.467,28.94,48.306,28.94C56.146,28.94,62.152,31.943,62.152,34.505ZM67.585,34.505C67.585,27.919,58.761,23.507,48.306,23.507C37.852,23.507,29.028,27.919,29.028,34.505C29.028,41.09,37.852,45.502,48.306,45.502C58.761,45.502,67.585,41.09,67.585,34.505Z"/>
  <path stroke-opacity="1" stroke="none" stroke-width="1px" stroke-miterlimit="10" data-color="color-2" stroke-dasharray="none" fill="#000000" stroke-linejoin="miter" stroke-linecap="square" points=" 8,5 8,8 5,8 " fill-rule="nonzero" fill-opacity="1" d="M20.747,15.182L20.747,23.463L23.463,20.747L15.182,20.747L12.466,20.747L12.466,26.179L15.182,26.179L23.463,26.179L26.179,26.179L26.179,23.463L26.179,15.182L26.179,12.466L20.747,12.466L20.747,15.182Z"/>
  <path stroke-linejoin="miter" stroke="none" stroke-dasharray="none" stroke-opacity="1" stroke-width="1px" fill="#000000" fill-opacity="1" fill-rule="nonzero" stroke-miterlimit="10" data-color="color-2" stroke-linecap="square" d="M23.463,40.069C14.292,40.069,6.857,32.635,6.857,23.463C6.857,14.292,14.292,6.857,23.463,6.857C30.86,6.857,37.306,11.738,39.382,18.719L40.156,21.323L45.363,19.774L44.589,17.171C41.832,7.9,33.28,1.424,23.463,1.424C11.291,1.424,1.424,11.291,1.424,23.463C1.424,35.635,11.291,45.502,23.463,45.502L26.179,45.502L26.179,40.069L23.463,40.069Z"/>
</g>
  <g id="Bold-L" transform="matrix(1.0,0.0,0.0,1.0,2308.1356014543094,1487.6456209855594)">  <path fill="#000000" stroke-dasharray="none" fill-rule="nonzero" stroke-opacity="1" stroke="none" data-cap="butt" stroke-miterlimit="10" stroke-linejoin="miter" stroke-linecap="butt" fill-opacity="1" stroke-width="1px" d="M29.362,34.505L29.362,45.546C29.362,51.884,38.012,56.209,48.306,56.209C58.601,56.209,67.251,51.884,67.251,45.546L67.251,34.505L62.486,34.505L62.486,45.546C62.486,48.355,56.307,51.445,48.306,51.445C40.305,51.445,34.126,48.355,34.126,45.546L34.126,34.505L29.362,34.505Z"/>
  <path data-cap="butt" fill-opacity="1" fill="#000000" stroke-width="1px" stroke-linejoin="miter" stroke-opacity="1" stroke="none" stroke-linecap="butt" fill-rule="nonzero" stroke-miterlimit="10" stroke-dasharray="none" d="M29.362,45.546L29.362,56.588C29.362,62.926,38.012,67.251,48.306,67.251C58.601,67.251,67.251,62.926,67.251,56.588L67.251,45.546L62.486,45.546L62.486,56.588C62.486,59.397,56.307,62.486,48.306,62.486C40.305,62.486,34.126,59.397,34.126,56.588L34.126,45.546L29.362,45.546Z"/>
  <path stroke-width="1px" stroke-dasharray="none" ry="3" fill="#000000" stroke-linejoin="miter" stroke="none" fill-opacity="1" fill-rule="nonzero" cy="12" rx="6" stroke-miterlimit="10" cx="17" stroke-linecap="square" stroke-opacity="1" d="M62.486,34.505C62.486,37.314,56.307,40.403,48.306,40.403C40.306,40.403,34.126,37.314,34.126,34.505C34.126,31.696,40.306,28.606,48.306,28.606C56.307,28.606,62.486,31.696,62.486,34.505ZM67.251,34.505C67.251,28.167,58.6,23.841,48.306,23.841C38.013,23.841,29.362,28.167,29.362,34.505C29.362,40.843,38.013,45.168,48.306,45.168C58.6,45.168,67.251,40.843,67.251,34.505Z"/>
  <path stroke="none" fill-opacity="1" stroke-linecap="square" data-color="color-2" stroke-opacity="1" fill-rule="nonzero" stroke-width="1px" points=" 8,5 8,8 5,8 " fill="#000000" stroke-linejoin="miter" stroke-dasharray="none" stroke-miterlimit="10" d="M21.081,15.182L21.081,23.463L23.463,21.081L15.182,21.081L12.8,21.081L12.8,25.845L15.182,25.845L23.463,25.845L25.845,25.845L25.845,23.463L25.845,15.182L25.845,12.8L21.081,12.8L21.081,15.182Z"/>
  <path stroke-miterlimit="10" fill-opacity="1" data-color="color-2" stroke-linejoin="miter" fill-rule="nonzero" stroke-dasharray="none" stroke-linecap="square" stroke-opacity="1" stroke="none" stroke-width="1px" fill="#000000" d="M23.463,40.403C14.107,40.403,6.523,32.819,6.523,23.463C6.523,14.107,14.107,6.523,23.463,6.523C31.009,6.523,37.584,11.502,39.702,18.624L40.381,20.908L44.948,19.55L44.269,17.266C41.554,8.136,33.131,1.758,23.463,1.758C11.476,1.758,1.758,11.476,1.758,23.463C1.758,35.45,11.476,45.168,23.463,45.168L25.845,45.168L25.845,40.403L23.463,40.403Z"/>
</g>
  <g id="Semibold-L" transform="matrix(1.0,0.0,0.0,1.0,2011.4256014543093,1487.6456209855594)">  <path fill-opacity="1" fill-rule="nonzero" stroke-width="1px" fill="#000000" data-cap="butt" stroke-opacity="1" stroke-dasharray="none" stroke-linejoin="miter" stroke-linecap="butt" stroke="none" stroke-miterlimit="10" d="M29.696,34.505L29.696,45.546C29.696,51.637,38.173,55.875,48.306,55.875C58.44,55.875,66.917,51.637,66.917,45.546L66.917,34.505L62.82,34.505L62.82,45.546C62.82,48.603,56.468,51.779,48.306,51.779C40.145,51.779,33.792,48.603,33.792,45.546L33.792,34.505L29.696,34.505Z"/>
  <path stroke-linejoin="miter" stroke-linecap="butt" stroke-opacity="1" data-cap="butt" stroke="none" stroke-dasharray="none" stroke-miterlimit="10" fill="#000000" fill-opacity="1" stroke-width="1px" fill-rule="nonzero" d="M29.696,45.546L29.696,56.588C29.696,62.679,38.173,66.917,48.306,66.917C58.44,66.917,66.917,62.679,66.917,56.588L66.917,45.546L62.82,45.546L62.82,56.588C62.82,59.644,56.468,62.82,48.306,62.82C40.145,62.82,33.792,59.644,33.792,56.588L33.792,45.546L29.696,45.546Z"/>
  <path stroke-miterlimit="10" stroke-dasharray="none" stroke="none" stroke-width="1px" cy="12" fill-opacity="1" ry="3" fill-rule="nonzero" stroke-opacity="1" stroke-linejoin="miter" rx="6" stroke-linecap="square" fill="#000000" cx="17" d="M62.82,34.505C62.82,37.561,56.467,40.737,48.306,40.737C40.145,40.737,33.792,37.561,33.792,34.505C33.792,31.448,40.145,28.272,48.306,28.272C56.467,28.272,62.82,31.448,62.82,34.505ZM66.917,34.505C66.917,28.414,58.44,24.175,48.306,24.175C38.173,24.175,29.696,28.414,29.696,34.505C29.696,40.595,38.173,44.834,48.306,44.834C58.44,44.834,66.917,40.595,66.917,34.505Z"/>
  <path points=" 8,5 8,8 5,8 " stroke-width="1px" fill-opacity="1" stroke-linecap="square" stroke="none" stroke-dasharray="none" fill="#000000" stroke-miterlimit="10" stroke-linejoin="miter" data-color="color-2" stroke-opacity="1" fill-rule="nonzero" d="M21.415,15.182L21.415,23.463L23.463,21.415L15.182,21.415L13.134,21.415L13.134,25.511L15.182,25.511L23.463,25.511L25.511,25.511L25.511,23.463L25.511,15.182L25.511,13.134L21.415,13.134L21.415,15.182Z"/>
  <path fill-opacity="1" stroke-opacity="1" stroke-width="1px" stroke-miterlimit="10" stroke="none" data-color="color-2" stroke-linejoin="miter" stroke-linecap="square" stroke-dasharray="none" fill="#000000" fill-rule="nonzero" d="M23.463,40.737C13.923,40.737,6.189,33.004,6.189,23.463C6.189,13.923,13.923,6.189,23.463,6.189C31.157,6.189,37.862,11.266,40.022,18.529L40.606,20.492L44.532,19.325L43.948,17.361C41.275,8.372,32.982,2.092,23.463,2.092C11.66,2.092,2.092,11.66,2.092,23.463C2.092,35.266,11.66,44.834,23.463,44.834L25.511,44.834L25.511,40.737L23.463,40.737Z"/>
</g>
  <g id="Medium-L" transform="matrix(1.0,0.0,0.0,1.0,1714.7156014543093,1487.6456209855594)">  <path stroke-linejoin="miter" stroke-linecap="butt" fill="#000000" stroke-width="1px" data-cap="butt" stroke-opacity="1" fill-opacity="1" stroke-dasharray="none" stroke-miterlimit="10" fill-rule="nonzero" stroke="none" d="M30.03,34.505L30.03,45.546C30.03,51.39,38.333,55.541,48.306,55.541C58.28,55.541,66.583,51.39,66.583,45.546L66.583,34.505L63.154,34.505L63.154,45.546C63.154,48.85,56.629,52.113,48.306,52.113C39.984,52.113,33.458,48.85,33.458,45.546L33.458,34.505L30.03,34.505Z"/>
  <path stroke-opacity="1" stroke="none" stroke-miterlimit="10" stroke-linecap="butt" data-cap="butt" stroke-dasharray="none" fill-rule="nonzero" stroke-linejoin="miter" stroke-width="1px" fill="#000000" fill-opacity="1" d="M30.03,45.546L30.03,56.588C30.03,62.431,38.333,66.583,48.306,66.583C58.28,66.583,66.583,62.431,66.583,56.588L66.583,45.546L63.154,45.546L63.154,56.588C63.154,59.892,56.629,63.154,48.306,63.154C39.984,63.154,33.458,59.892,33.458,56.588L33.458,45.546L30.03,45.546Z"/>
  <path rx="6" fill-opacity="1" fill="#000000" ry="3" stroke="none" cx="17" stroke-opacity="1" fill-rule="nonzero" stroke-miterlimit="10" cy="12" stroke-dasharray="none" stroke-linejoin="miter" stroke-width="1px" stroke-linecap="square" d="M63.154,34.505C63.154,37.808,56.628,41.071,48.306,41.071C39.985,41.071,33.458,37.808,33.458,34.505C33.458,31.201,39.985,27.938,48.306,27.938C56.628,27.938,63.154,31.201,63.154,34.505ZM66.583,34.505C66.583,28.661,58.279,24.509,48.306,24.509C38.334,24.509,30.03,28.661,30.03,34.505C30.03,40.348,38.334,44.5,48.306,44.5C58.279,44.5,66.583,40.348,66.583,34.505Z"/>
  <path stroke-dasharray="none" points=" 8,5 8,8 5,8 " stroke="none" fill-opacity="1" data-color="color-2" stroke-miterlimit="10" stroke-linecap="square" stroke-opacity="1" fill="#000000" stroke-linejoin="miter" fill-rule="nonzero" stroke-width="1px" d="M21.749,15.182L21.749,23.463L23.463,21.749L15.182,21.749L13.468,21.749L13.468,25.177L15.182,25.177L23.463,25.177L25.177,25.177L25.177,23.463L25.177,15.182L25.177,13.468L21.749,13.468L21.749,15.182Z"/>
  <path stroke-linejoin="miter" stroke-linecap="square" stroke-opacity="1" fill-opacity="1" fill-rule="nonzero" stroke-miterlimit="10" data-color="color-2" stroke-dasharray="none" stroke-width="1px" fill="#000000" stroke="none" d="M23.463,41.071C13.738,41.071,5.855,33.188,5.855,23.463C5.855,13.738,13.738,5.855,23.463,5.855C31.306,5.855,38.14,11.03,40.342,18.434L40.831,20.077L44.117,19.1L43.628,17.457C40.997,8.608,32.834,2.426,23.463,2.426C11.845,2.426,2.426,11.845,2.426,23.463C2.426,35.081,11.845,44.5,23.463,44.5L25.177,44.5L25.177,41.071L23.463,41.071Z"/>
</g>
  <g id="Regular-L" transform="matrix(1.0,0.0,0.0,1.0,1418.0056014543093,1487.6456209855594)">  <path fill-rule="nonzero" stroke="none" stroke-linejoin="miter" stroke-miterlimit="10" stroke-opacity="1" data-cap="butt" fill-opacity="1" stroke-dasharray="none" fill="#000000" stroke-width="1px" stroke-linecap="butt" d="M30.364,34.505L30.364,45.546C30.364,51.142,38.494,55.207,48.306,55.207C58.119,55.207,66.249,51.142,66.249,45.546L66.249,34.505L63.488,34.505L63.488,45.546C63.488,49.098,56.79,52.447,48.306,52.447C39.823,52.447,33.124,49.098,33.124,45.546L33.124,34.505L30.364,34.505Z"/>
  <path stroke-dasharray="none" fill-rule="nonzero" fill-opacity="1" stroke="none" stroke-width="1px" data-cap="butt" stroke-linecap="butt" stroke-miterlimit="10" stroke-linejoin="miter" stroke-opacity="1" fill="#000000" d="M30.364,45.546L30.364,56.588C30.364,62.184,38.494,66.249,48.306,66.249C58.119,66.249,66.249,62.184,66.249,56.588L66.249,45.546L63.488,45.546L63.488,56.588C63.488,60.139,56.79,63.488,48.306,63.488C39.823,63.488,33.124,60.139,33.124,56.588L33.124,45.546L30.364,45.546Z"/>
  <path fill-rule="nonzero" stroke-opacity="1" stroke-linejoin="miter" stroke="none" stroke-dasharray="none" rx="6" fill="#000000" stroke-linecap="square" stroke-miterlimit="10" fill-opacity="1" cx="17" cy="12" ry="3" stroke-width="1px" d="M63.488,34.505C63.488,38.056,56.789,41.405,48.306,41.405C39.824,41.405,33.124,38.056,33.124,34.505C33.124,30.953,39.824,27.604,48.306,27.604C56.789,27.604,63.488,30.953,63.488,34.505ZM66.249,34.505C66.249,28.909,58.118,24.843,48.306,24.843C38.495,24.843,30.364,28.909,30.364,34.505C30.364,40.1,38.495,44.166,48.306,44.166C58.118,44.166,66.249,40.1,66.249,34.505Z"/>
  <path stroke-width="1px" stroke-linejoin="miter" stroke-miterlimit="10" stroke="none" stroke-linecap="square" stroke-opacity="1" points=" 8,5 8,8 5,8 " data-color="color-2" fill="#000000" fill-rule="nonzero" stroke-dasharray="none" fill-opacity="1" d="M22.083,15.182L22.083,23.463L23.463,22.083L15.182,22.083L13.802,22.083L13.802,24.843L15.182,24.843L23.463,24.843L24.843,24.843L24.843,23.463L24.843,15.182L24.843,13.802L22.083,13.802L22.083,15.182Z"/>
  <path fill-rule="nonzero" stroke-miterlimit="10" fill="#000000" stroke-linecap="square" stroke-linejoin="miter" stroke-width="1px" fill-opacity="1" data-color="color-2" stroke-opacity="1" stroke-dasharray="none" stroke="none" d="M23.463,41.405C13.554,41.405,5.521,33.372,5.521,23.463C5.521,13.554,13.554,5.521,23.463,5.521C31.455,5.521,38.419,10.794,40.662,18.339L41.056,19.661L43.702,18.875L43.308,17.552C40.719,8.844,32.685,2.76,23.463,2.76C12.029,2.76,2.76,12.029,2.76,23.463C2.76,34.897,12.029,44.166,23.463,44.166L24.843,44.166L24.843,41.405L23.463,41.405Z"/>
</g>
  <g id="Light-L" transform="matrix(1.0,0.0,0.0,1.0,1121.2956014543095,1487.6456209855594)">  <path stroke-miterlimit="10" stroke="none" fill-opacity="1" stroke-linejoin="miter" stroke-dasharray="none" fill="#000000" stroke-width="1px" stroke-opacity="1" data-cap="butt" stroke-linecap="butt" fill-rule="nonzero" d="M30.594,34.505L30.594,45.546C30.594,50.972,38.605,54.977,48.306,54.977C58.008,54.977,66.019,50.972,66.019,45.546L66.019,34.505L63.718,34.505L63.718,45.546C63.718,49.268,56.901,52.677,48.306,52.677C39.712,52.677,32.894,49.268,32.894,45.546L32.894,34.505L30.594,34.505Z"/>
  <path stroke-width="1px" stroke-linejoin="miter" stroke-miterlimit="10" stroke-dasharray="none" data-cap="butt" stroke-opacity="1" fill="#000000" fill-opacity="1" stroke="none" fill-rule="nonzero" stroke-linecap="butt" d="M30.594,45.546L30.594,56.588C30.594,62.013,38.605,66.019,48.306,66.019C58.008,66.019,66.019,62.013,66.019,56.588L66.019,45.546L63.718,45.546L63.718,56.588C63.718,60.31,56.901,63.718,48.306,63.718C39.712,63.718,32.894,60.31,32.894,56.588L32.894,45.546L30.594,45.546Z"/>
  <path cy="12" stroke="none" stroke-miterlimit="10" ry="3" cx="17" stroke-linejoin="miter" fill-opacity="1" stroke-linecap="square" stroke-opacity="1" rx="6" fill-rule="nonzero" stroke-dasharray="none" stroke-width="1px" fill="#000000" d="M63.718,34.505C63.718,38.226,56.9,41.636,48.306,41.636C39.713,41.636,32.894,38.226,32.894,34.505C32.894,30.783,39.713,27.374,48.306,27.374C56.9,27.374,63.718,30.783,63.718,34.505ZM66.019,34.505C66.019,29.079,58.007,25.073,48.306,25.073C38.606,25.073,30.594,29.079,30.594,34.505C30.594,39.93,38.606,43.936,48.306,43.936C58.007,43.936,66.019,39.93,66.019,34.505Z"/>
  <path fill-opacity="1" stroke-miterlimit="10" stroke="none" stroke-dasharray="none" stroke-width="1px" data-color="color-2" stroke-linejoin="miter" stroke-linecap="square" fill-rule="nonzero" fill="#000000" stroke-opacity="1" points=" 8,5 8,8 5,8 " d="M22.313,15.182L22.313,23.463L23.463,22.313L15.182,22.313L14.032,22.313L14.032,24.613L15.182,24.613L23.463,24.613L24.613,24.613L24.613,23.463L24.613,15.182L24.613,14.032L22.313,14.032L22.313,15.182Z"/>
  <path fill-rule="nonzero" stroke-linejoin="miter" fill="#000000" data-color="color-2" stroke-opacity="1" stroke-linecap="square" stroke-dasharray="none" fill-opacity="1" stroke-miterlimit="10" stroke="none" stroke-width="1px" d="M23.463,41.636C13.427,41.636,5.291,33.499,5.291,23.463C5.291,13.427,13.427,5.291,23.463,5.291C31.558,5.291,38.61,10.632,40.883,18.273L41.211,19.375L43.415,18.72L43.088,17.617C40.527,9.007,32.582,2.99,23.463,2.99C12.156,2.99,2.99,12.156,2.99,23.463C2.99,34.77,12.156,43.936,23.463,43.936L24.613,43.936L24.613,41.636L23.463,41.636Z"/>
</g>
  <g id="Thin-L" transform="matrix(1.0,0.0,0.0,1.0,824.5856014543094,1487.6456209855594)">  <path stroke-miterlimit="10" stroke-opacity="1" fill-rule="nonzero" stroke-linecap="butt" stroke="none" stroke-width="1px" data-cap="butt" fill="#000000" stroke-linejoin="miter" fill-opacity="1" stroke-dasharray="none" d="M30.824,34.505L30.824,45.546C30.824,50.802,38.716,54.747,48.306,54.747C57.897,54.747,65.789,50.802,65.789,45.546L65.789,34.505L63.948,34.505L63.948,45.546C63.948,49.438,57.011,52.907,48.306,52.907C39.602,52.907,32.664,49.438,32.664,45.546L32.664,34.505L30.824,34.505Z"/>
  <path stroke-width="1px" stroke-dasharray="none" fill-opacity="1" fill-rule="nonzero" stroke-opacity="1" stroke-linejoin="miter" data-cap="butt" stroke-linecap="butt" stroke-miterlimit="10" stroke="none" fill="#000000" d="M30.824,45.546L30.824,56.588C30.824,61.843,38.716,65.789,48.306,65.789C57.897,65.789,65.789,61.843,65.789,56.588L65.789,45.546L63.948,45.546L63.948,56.588C63.948,60.48,57.011,63.948,48.306,63.948C39.602,63.948,32.664,60.48,32.664,56.588L32.664,45.546L30.824,45.546Z"/>
  <path stroke-opacity="1" stroke-miterlimit="10" stroke-linecap="square" fill-rule="nonzero" fill-opacity="1" stroke-width="1px" rx="6" stroke-linejoin="miter" stroke-dasharray="none" cx="17" ry="3" fill="#000000" stroke="none" cy="12" d="M63.948,34.505C63.948,38.397,57.01,41.866,48.306,41.866C39.602,41.866,32.664,38.397,32.664,34.505C32.664,30.613,39.602,27.144,48.306,27.144C57.01,27.144,63.948,30.613,63.948,34.505ZM65.789,34.505C65.789,29.25,57.896,25.303,48.306,25.303C38.716,25.303,30.824,29.25,30.824,34.505C30.824,39.76,38.716,43.706,48.306,43.706C57.896,43.706,65.789,39.76,65.789,34.505Z"/>
  <path stroke-opacity="1" points=" 8,5 8,8 5,8 " stroke-linejoin="miter" stroke-dasharray="none" stroke-linecap="square" fill="#000000" fill-rule="nonzero" fill-opacity="1" data-color="color-2" stroke-miterlimit="10" stroke="none" stroke-width="1px" d="M22.543,15.182L22.543,23.463L23.463,22.543L15.182,22.543L14.262,22.543L14.262,24.383L15.182,24.383L23.463,24.383L24.383,24.383L24.383,23.463L24.383,15.182L24.383,14.262L22.543,14.262L22.543,15.182Z"/>
  <path stroke-opacity="1" fill-rule="nonzero" stroke-width="1px" stroke-linecap="square" fill="#000000" fill-opacity="1" stroke-dasharray="none" stroke-miterlimit="10" data-color="color-2" stroke="none" stroke-linejoin="miter" d="M23.463,41.866C13.3,41.866,5.061,33.627,5.061,23.463C5.061,13.3,13.3,5.061,23.463,5.061C31.66,5.061,38.802,10.469,41.103,18.207L41.365,19.089L43.129,18.565L42.867,17.683C40.335,9.169,32.48,3.22,23.463,3.22C12.283,3.22,3.22,12.283,3.22,23.463C3.22,34.643,12.283,43.706,23.463,43.706L24.383,43.706L24.383,41.866L23.463,41.866Z"/>
</g>
  <g id="Ultralight-L" transform="matrix(1.0,0.0,0.0,1.0,527.8756014543094,1487.6456209855594)">  <path fill-opacity="1" stroke-width="1px" stroke-opacity="1" stroke="none" stroke-dasharray="none" stroke-linecap="butt" data-cap="butt" fill="#000000" fill-rule="nonzero" stroke-linejoin="miter" stroke-miterlimit="10" d="M31.054,34.505L31.054,45.546C31.054,50.631,38.826,54.517,48.306,54.517C57.786,54.517,65.559,50.631,65.559,45.546L65.559,34.505L64.179,34.505L64.179,45.546C64.179,49.609,57.122,53.137,48.306,53.137C39.491,53.137,32.434,49.609,32.434,45.546L32.434,34.505L31.054,34.505Z"/>
  <path fill="#000000" fill-opacity="1" stroke="none" stroke-miterlimit="10" stroke-linejoin="miter" fill-rule="nonzero" stroke-width="1px" stroke-linecap="butt" data-cap="butt" stroke-opacity="1" stroke-dasharray="none" d="M31.054,45.546L31.054,56.588C31.054,61.673,38.826,65.559,48.306,65.559C57.786,65.559,65.559,61.673,65.559,56.588L65.559,45.546L64.179,45.546L64.179,56.588C64.179,60.65,57.122,64.179,48.306,64.179C39.491,64.179,32.434,60.65,32.434,56.588L32.434,45.546L31.054,45.546Z"/>
  <path cx="17" ry="3" stroke-linejoin="miter" stroke="none" stroke-dasharray="none" stroke-linecap="square" fill-opacity="1" fill="#000000" stroke-miterlimit="10" stroke-opacity="1" cy="12" fill-rule="nonzero" stroke-width="1px" rx="6" d="M64.179,34.505C64.179,38.567,57.121,42.096,48.306,42.096C39.492,42.096,32.434,38.567,32.434,34.505C32.434,30.442,39.492,26.914,48.306,26.914C57.121,26.914,64.179,30.442,64.179,34.505ZM65.559,34.505C65.559,29.42,57.786,25.533,48.306,25.533C38.827,25.533,31.054,29.42,31.054,34.505C31.054,39.589,38.827,43.476,48.306,43.476C57.786,43.476,65.559,39.589,65.559,34.505Z"/>
  <path fill-opacity="1" stroke-linejoin="miter" fill="#000000" points=" 8,5 8,8 5,8 " fill-rule="nonzero" stroke-miterlimit="10" data-color="color-2" stroke-width="1px" stroke="none" stroke-linecap="square" stroke-opacity="1" stroke-dasharray="none" d="M22.773,15.182L22.773,23.463L23.463,22.773L15.182,22.773L14.492,22.773L14.492,24.153L15.182,24.153L23.463,24.153L24.153,24.153L24.153,23.463L24.153,15.182L24.153,14.492L22.773,14.492L22.773,15.182Z"/>
  <path fill="#000000" fill-rule="nonzero" stroke-dasharray="none" stroke-linecap="square" stroke-linejoin="miter" stroke="none" stroke-opacity="1" stroke-width="1px" data-color="color-2" fill-opacity="1" stroke-miterlimit="10" d="M23.463,42.096C13.173,42.096,4.831,33.754,4.831,23.463C4.831,13.173,13.173,4.831,23.463,4.831C31.763,4.831,38.994,10.307,41.324,18.142L41.52,18.803L42.843,18.41L42.647,17.748C40.144,9.332,32.377,3.45,23.463,3.45C12.41,3.45,3.45,12.41,3.45,23.463C3.45,34.516,12.41,43.476,23.463,43.476L24.153,43.476L24.153,42.096L23.463,42.096Z"/>
</g>
  <g id="Black-M" transform="matrix(1.0,0.0,0.0,1.0,2909.002171670007,1065.0921912012573)">  <path data-cap="butt" stroke="none" stroke-width="1px" stroke-opacity="1" stroke-linecap="butt" fill-rule="nonzero" stroke-linejoin="miter" fill="#000000" fill-opacity="1" stroke-miterlimit="10" stroke-dasharray="none" d="M22.243,26.748L22.243,35.307C22.243,40.604,29.217,44.091,37.447,44.091C45.677,44.091,52.65,40.604,52.65,35.307L52.65,26.748L47.921,26.748L47.921,35.307C47.921,37.101,43.4,39.362,37.447,39.362C31.494,39.362,26.972,37.101,26.972,35.307L26.972,26.748L22.243,26.748Z"/>
  <path stroke-linecap="butt" fill-rule="nonzero" stroke="none" fill-opacity="1" stroke-width="1px" stroke-dasharray="none" data-cap="butt" stroke-linejoin="miter" fill="#000000" stroke-opacity="1" stroke-miterlimit="10" d="M22.243,35.307L22.243,43.866C22.243,49.163,29.217,52.65,37.447,52.65C45.677,52.65,52.65,49.163,52.65,43.866L52.65,35.307L47.921,35.307L47.921,43.866C47.921,45.661,43.4,47.921,37.447,47.921C31.494,47.921,26.972,45.661,26.972,43.866L26.972,35.307L22.243,35.307Z"/>
  <path rx="6" ry="3" stroke-width="1px" fill-rule="nonzero" fill="#000000" stroke-linejoin="miter" stroke-dasharray="none" stroke="none" cx="17" fill-opacity="1" stroke-linecap="square" cy="12" stroke-opacity="1" stroke-miterlimit="10" d="M47.921,26.748C47.921,28.542,43.399,30.803,37.447,30.803C31.494,30.803,26.972,28.542,26.972,26.748C26.972,24.954,31.494,22.693,37.447,22.693C43.399,22.693,47.921,24.954,47.921,26.748ZM52.65,26.748C52.65,21.451,45.676,17.964,37.447,17.964C29.218,17.964,22.243,21.451,22.243,26.748C22.243,32.045,29.218,35.532,37.447,35.532C45.676,35.532,52.65,32.045,52.65,26.748Z"/>
  <path fill-rule="nonzero" stroke-linecap="square" stroke-miterlimit="10" stroke-opacity="1" stroke-linejoin="miter" fill="#000000" stroke-dasharray="none" fill-opacity="1" data-color="color-2" stroke="none" stroke-width="1px" points=" 8,5 8,8 5,8 " d="M15.824,11.769L15.824,18.188L18.188,15.824L11.769,15.824L9.405,15.824L9.405,20.553L11.769,20.553L18.188,20.553L20.553,20.553L20.553,18.188L20.553,11.769L20.553,9.405L15.824,9.405L15.824,11.769Z"/>
  <path fill-opacity="1" stroke-linecap="square" data-color="color-2" stroke="none" stroke-width="1px" stroke-linejoin="miter" stroke-opacity="1" stroke-dasharray="none" fill-rule="nonzero" stroke-miterlimit="10" fill="#000000" d="M18.188,30.803C11.222,30.803,5.574,25.155,5.574,18.188C5.574,11.222,11.222,5.574,18.188,5.574C23.807,5.574,28.703,9.282,30.28,14.585L30.954,16.851L35.487,15.503L34.813,13.237C32.644,5.942,25.914,0.845,18.188,0.845C8.61,0.845,0.845,8.61,0.845,18.188C0.845,27.767,8.61,35.532,18.188,35.532L20.553,35.532L20.553,30.803L18.188,30.803Z"/>
</g>
  <g id="Heavy-M" transform="matrix(1.0,0.0,0.0,1.0,2612.292171670007,1065.0921912012573)">  <path stroke-opacity="1" data-cap="butt" stroke-linejoin="miter" stroke-width="1px" fill="#000000" stroke="none" stroke-dasharray="none" fill-opacity="1" stroke-miterlimit="10" fill-rule="nonzero" stroke-linecap="butt" d="M22.502,26.748L22.502,35.307C22.502,40.412,29.342,43.832,37.447,43.832C45.552,43.832,52.391,40.412,52.391,35.307L52.391,26.748L48.18,26.748L48.18,35.307C48.18,37.293,43.525,39.621,37.447,39.621C31.369,39.621,26.714,37.293,26.714,35.307L26.714,26.748L22.502,26.748Z"/>
  <path stroke-linejoin="miter" stroke-linecap="butt" fill-opacity="1" fill="#000000" stroke-width="1px" fill-rule="nonzero" stroke-dasharray="none" stroke-miterlimit="10" stroke-opacity="1" stroke="none" data-cap="butt" d="M22.502,35.307L22.502,43.866C22.502,48.972,29.342,52.391,37.447,52.391C45.552,52.391,52.391,48.972,52.391,43.866L52.391,35.307L48.18,35.307L48.18,43.866C48.18,45.852,43.525,48.18,37.447,48.18C31.369,48.18,26.714,45.852,26.714,43.866L26.714,35.307L22.502,35.307Z"/>
  <path stroke-miterlimit="10" fill="#000000" stroke-opacity="1" fill-rule="nonzero" stroke-dasharray="none" stroke="none" rx="6" ry="3" stroke-linejoin="miter" stroke-linecap="square" cy="12" fill-opacity="1" cx="17" stroke-width="1px" d="M48.18,26.748C48.18,28.733,43.524,31.062,37.447,31.062C31.37,31.062,26.714,28.733,26.714,26.748C26.714,24.762,31.37,22.434,37.447,22.434C43.524,22.434,48.18,24.762,48.18,26.748ZM52.391,26.748C52.391,21.643,45.551,18.223,37.447,18.223C29.342,18.223,22.502,21.643,22.502,26.748C22.502,31.853,29.342,35.273,37.447,35.273C45.551,35.273,52.391,31.853,52.391,26.748Z"/>
  <path stroke-opacity="1" stroke="none" stroke-width="1px" stroke-miterlimit="10" data-color="color-2" stroke-dasharray="none" fill="#000000" stroke-linejoin="miter" stroke-linecap="square" points=" 8,5 8,8 5,8 " fill-rule="nonzero" fill-opacity="1" d="M16.083,11.769L16.083,18.188L18.188,16.083L11.769,16.083L9.663,16.083L9.663,20.294L11.769,20.294L18.188,20.294L20.294,20.294L20.294,18.188L20.294,11.769L20.294,9.663L16.083,9.663L16.083,11.769Z"/>
  <path stroke-linejoin="miter" stroke="none" stroke-dasharray="none" stroke-opacity="1" stroke-width="1px" fill="#000000" fill-opacity="1" fill-rule="nonzero" stroke-miterlimit="10" data-color="color-2" stroke-linecap="square" d="M18.188,31.062C11.079,31.062,5.315,25.298,5.315,18.188C5.315,11.079,11.079,5.315,18.188,5.315C23.922,5.315,28.919,9.099,30.528,14.511L31.129,16.529L35.165,15.329L34.565,13.311C32.428,6.124,25.798,1.104,18.188,1.104C8.753,1.104,1.104,8.753,1.104,18.188C1.104,27.624,8.753,35.273,18.188,35.273L20.294,35.273L20.294,31.062L18.188,31.062Z"/>
</g>
  <g id="Bold-M" transform="matrix(1.0,0.0,0.0,1.0,2315.582171670007,1065.0921912012573)">  <path fill="#000000" stroke-dasharray="none" fill-rule="nonzero" stroke-opacity="1" stroke="none" data-cap="butt" stroke-miterlimit="10" stroke-linejoin="miter" stroke-linecap="butt" fill-opacity="1" stroke-width="1px" d="M22.761,26.748L22.761,35.307C22.761,40.221,29.466,43.573,37.447,43.573C45.427,43.573,52.132,40.221,52.132,35.307L52.132,26.748L48.439,26.748L48.439,35.307C48.439,37.485,43.649,39.88,37.447,39.88C31.245,39.88,26.455,37.485,26.455,35.307L26.455,26.748L22.761,26.748Z"/>
  <path data-cap="butt" fill-opacity="1" fill="#000000" stroke-width="1px" stroke-linejoin="miter" stroke-opacity="1" stroke="none" stroke-linecap="butt" fill-rule="nonzero" stroke-miterlimit="10" stroke-dasharray="none" d="M22.761,35.307L22.761,43.866C22.761,48.78,29.466,52.132,37.447,52.132C45.427,52.132,52.132,48.78,52.132,43.866L52.132,35.307L48.439,35.307L48.439,43.866C48.439,46.044,43.649,48.439,37.447,48.439C31.245,48.439,26.455,46.044,26.455,43.866L26.455,35.307L22.761,35.307Z"/>
  <path stroke-width="1px" stroke-dasharray="none" ry="3" fill="#000000" stroke-linejoin="miter" stroke="none" fill-opacity="1" fill-rule="nonzero" cy="12" rx="6" stroke-miterlimit="10" cx="17" stroke-linecap="square" stroke-opacity="1" d="M48.439,26.748C48.439,28.925,43.649,31.321,37.447,31.321C31.245,31.321,26.455,28.925,26.455,26.748C26.455,24.57,31.245,22.175,37.447,22.175C43.649,22.175,48.439,24.57,48.439,26.748ZM52.132,26.748C52.132,21.835,45.427,18.482,37.447,18.482C29.467,18.482,22.761,21.835,22.761,26.748C22.761,31.661,29.467,35.014,37.447,35.014C45.427,35.014,52.132,31.661,52.132,26.748Z"/>
  <path stroke="none" fill-opacity="1" stroke-linecap="square" data-color="color-2" stroke-opacity="1" fill-rule="nonzero" stroke-width="1px" points=" 8,5 8,8 5,8 " fill="#000000" stroke-linejoin="miter" stroke-dasharray="none" stroke-miterlimit="10" d="M16.342,11.769L16.342,18.188L18.188,16.342L11.769,16.342L9.922,16.342L9.922,20.035L11.769,20.035L18.188,20.035L20.035,20.035L20.035,18.188L20.035,11.769L20.035,9.922L16.342,9.922L16.342,11.769Z"/>
  <path stroke-miterlimit="10" fill-opacity="1" data-color="color-2" stroke-linejoin="miter" fill-rule="nonzero" stroke-dasharray="none" stroke-linecap="square" stroke-opacity="1" stroke="none" stroke-width="1px" fill="#000000" d="M18.188,31.321C10.936,31.321,5.056,25.441,5.056,18.188C5.056,10.936,10.936,5.056,18.188,5.056C24.038,5.056,29.135,8.916,30.777,14.437L31.303,16.207L34.843,15.155L34.317,13.385C32.212,6.307,25.683,1.363,18.188,1.363C8.896,1.363,1.363,8.896,1.363,18.188C1.363,27.481,8.896,35.014,18.188,35.014L20.035,35.014L20.035,31.321L18.188,31.321Z"/>
</g>
  <g id="Semibold-M" transform="matrix(1.0,0.0,0.0,1.0,2018.8721716700072,1065.0921912012573)">  <path fill-opacity="1" fill-rule="nonzero" stroke-width="1px" fill="#000000" data-cap="butt" stroke-opacity="1" stroke-dasharray="none" stroke-linejoin="miter" stroke-linecap="butt" stroke="none" stroke-miterlimit="10" d="M23.02,26.748L23.02,35.307C23.02,40.029,29.591,43.314,37.447,43.314C45.303,43.314,51.873,40.029,51.873,35.307L51.873,26.748L48.698,26.748L48.698,35.307C48.698,37.677,43.774,40.139,37.447,40.139C31.12,40.139,26.196,37.677,26.196,35.307L26.196,26.748L23.02,26.748Z"/>
  <path stroke-linejoin="miter" stroke-linecap="butt" stroke-opacity="1" data-cap="butt" stroke="none" stroke-dasharray="none" stroke-miterlimit="10" fill="#000000" fill-opacity="1" stroke-width="1px" fill-rule="nonzero" d="M23.02,35.307L23.02,43.866C23.02,48.588,29.591,51.873,37.447,51.873C45.303,51.873,51.873,48.588,51.873,43.866L51.873,35.307L48.698,35.307L48.698,43.866C48.698,46.236,43.774,48.698,37.447,48.698C31.12,48.698,26.196,46.236,26.196,43.866L26.196,35.307L23.02,35.307Z"/>
  <path stroke-miterlimit="10" stroke-dasharray="none" stroke="none" stroke-width="1px" cy="12" fill-opacity="1" ry="3" fill-rule="nonzero" stroke-opacity="1" stroke-linejoin="miter" rx="6" stroke-linecap="square" fill="#000000" cx="17" d="M48.698,26.748C48.698,29.117,43.773,31.579,37.447,31.579C31.12,31.579,26.196,29.117,26.196,26.748C26.196,24.378,31.12,21.916,37.447,21.916C43.773,21.916,48.698,24.378,48.698,26.748ZM51.873,26.748C51.873,22.026,45.302,18.741,37.447,18.741C29.592,18.741,23.02,22.026,23.02,26.748C23.02,31.469,29.592,34.755,37.447,34.755C45.302,34.755,51.873,31.469,51.873,26.748Z"/>
  <path points=" 8,5 8,8 5,8 " stroke-width="1px" fill-opacity="1" stroke-linecap="square" stroke="none" stroke-dasharray="none" fill="#000000" stroke-miterlimit="10" stroke-linejoin="miter" data-color="color-2" stroke-opacity="1" fill-rule="nonzero" d="M16.601,11.769L16.601,18.188L18.188,16.601L11.769,16.601L10.181,16.601L10.181,19.776L11.769,19.776L18.188,19.776L19.776,19.776L19.776,18.188L19.776,11.769L19.776,10.181L16.601,10.181L16.601,11.769Z"/>
  <path fill-opacity="1" stroke-opacity="1" stroke-width="1px" stroke-miterlimit="10" stroke="none" data-color="color-2" stroke-linejoin="miter" stroke-linecap="square" stroke-dasharray="none" fill="#000000" fill-rule="nonzero" d="M18.188,31.579C10.793,31.579,4.797,25.584,4.797,18.188C4.797,10.793,10.793,4.797,18.188,4.797C24.153,4.797,29.35,8.733,31.025,14.364L31.477,15.885L34.521,14.98L34.069,13.458C31.996,6.49,25.568,1.622,18.188,1.622C9.039,1.622,1.622,9.039,1.622,18.188C1.622,27.338,9.039,34.755,18.188,34.755L19.776,34.755L19.776,31.579L18.188,31.579Z"/>
</g>
  <g id="Medium-M" transform="matrix(1.0,0.0,0.0,1.0,1722.1621716700072,1065.0921912012573)">  <path stroke-linejoin="miter" stroke-linecap="butt" fill="#000000" stroke-width="1px" data-cap="butt" stroke-opacity="1" fill-opacity="1" stroke-dasharray="none" stroke-miterlimit="10" fill-rule="nonzero" stroke="none" d="M23.279,26.748L23.279,35.307C23.279,39.837,29.716,43.055,37.447,43.055C45.178,43.055,51.615,39.837,51.615,35.307L51.615,26.748L48.957,26.748L48.957,35.307C48.957,37.868,43.898,40.398,37.447,40.398C30.995,40.398,25.937,37.868,25.937,35.307L25.937,26.748L23.279,26.748Z"/>
  <path stroke-opacity="1" stroke="none" stroke-miterlimit="10" stroke-linecap="butt" data-cap="butt" stroke-dasharray="none" fill-rule="nonzero" stroke-linejoin="miter" stroke-width="1px" fill="#000000" fill-opacity="1" d="M23.279,35.307L23.279,43.866C23.279,48.396,29.716,51.615,37.447,51.615C45.178,51.615,51.615,48.396,51.615,43.866L51.615,35.307L48.957,35.307L48.957,43.866C48.957,46.428,43.898,48.957,37.447,48.957C30.995,48.957,25.937,46.428,25.937,43.866L25.937,35.307L23.279,35.307Z"/>
  <path rx="6" fill-opacity="1" fill="#000000" ry="3" stroke="none" cx="17" stroke-opacity="1" fill-rule="nonzero" stroke-miterlimit="10" cy="12" stroke-dasharray="none" stroke-linejoin="miter" stroke-width="1px" stroke-linecap="square" d="M48.957,26.748C48.957,29.309,43.898,31.838,37.447,31.838C30.996,31.838,25.937,29.309,25.937,26.748C25.937,24.187,30.996,21.657,37.447,21.657C43.898,21.657,48.957,24.187,48.957,26.748ZM51.615,26.748C51.615,22.218,45.177,18.999,37.447,18.999C29.716,18.999,23.279,22.218,23.279,26.748C23.279,31.277,29.716,34.496,37.447,34.496C45.177,34.496,51.615,31.277,51.615,26.748Z"/>
  <path stroke-dasharray="none" points=" 8,5 8,8 5,8 " stroke="none" fill-opacity="1" data-color="color-2" stroke-miterlimit="10" stroke-linecap="square" stroke-opacity="1" fill="#000000" stroke-linejoin="miter" fill-rule="nonzero" stroke-width="1px" d="M16.86,11.769L16.86,18.188L18.188,16.86L11.769,16.86L10.44,16.86L10.44,19.517L11.769,19.517L18.188,19.517L19.517,19.517L19.517,18.188L19.517,11.769L19.517,10.44L16.86,10.44L16.86,11.769Z"/>
  <path stroke-linejoin="miter" stroke-linecap="square" stroke-opacity="1" fill-opacity="1" fill-rule="nonzero" stroke-miterlimit="10" data-color="color-2" stroke-dasharray="none" stroke-width="1px" fill="#000000" stroke="none" d="M18.188,31.838C10.65,31.838,4.539,25.727,4.539,18.188C4.539,10.65,10.65,4.539,18.188,4.539C24.268,4.539,29.566,8.55,31.273,14.29L31.652,15.563L34.199,14.806L33.82,13.532C31.781,6.673,25.452,1.881,18.188,1.881C9.182,1.881,1.881,9.182,1.881,18.188C1.881,27.195,9.182,34.496,18.188,34.496L19.517,34.496L19.517,31.838L18.188,31.838Z"/>
</g>
  <g id="Regular-M" transform="matrix(1.0,0.0,0.0,1.0,1425.4521716700071,1065.0921912012573)">  <path fill-rule="nonzero" stroke="none" stroke-linejoin="miter" stroke-miterlimit="10" stroke-opacity="1" data-cap="butt" fill-opacity="1" stroke-dasharray="none" fill="#000000" stroke-width="1px" stroke-linecap="butt" d="M23.538,26.748L23.538,35.307C23.538,39.645,29.84,42.796,37.447,42.796C45.053,42.796,51.356,39.645,51.356,35.307L51.356,26.748L49.216,26.748L49.216,35.307C49.216,38.06,44.023,40.657,37.447,40.657C30.871,40.657,25.678,38.06,25.678,35.307L25.678,26.748L23.538,26.748Z"/>
  <path stroke-dasharray="none" fill-rule="nonzero" fill-opacity="1" stroke="none" stroke-width="1px" data-cap="butt" stroke-linecap="butt" stroke-miterlimit="10" stroke-linejoin="miter" stroke-opacity="1" fill="#000000" d="M23.538,35.307L23.538,43.866C23.538,48.204,29.84,51.356,37.447,51.356C45.053,51.356,51.356,48.204,51.356,43.866L51.356,35.307L49.216,35.307L49.216,43.866C49.216,46.619,44.023,49.216,37.447,49.216C30.871,49.216,25.678,46.619,25.678,43.866L25.678,35.307L23.538,35.307Z"/>
  <path fill-rule="nonzero" stroke-opacity="1" stroke-linejoin="miter" stroke="none" stroke-dasharray="none" rx="6" fill="#000000" stroke-linecap="square" stroke-miterlimit="10" fill-opacity="1" cx="17" cy="12" ry="3" stroke-width="1px" d="M49.216,26.748C49.216,29.501,44.022,32.097,37.447,32.097C30.871,32.097,25.678,29.501,25.678,26.748C25.678,23.995,30.871,21.398,37.447,21.398C44.022,21.398,49.216,23.995,49.216,26.748ZM51.356,26.748C51.356,22.41,45.053,19.258,37.447,19.258C29.841,19.258,23.538,22.41,23.538,26.748C23.538,31.086,29.841,34.237,37.447,34.237C45.053,34.237,51.356,31.086,51.356,26.748Z"/>
  <path stroke-width="1px" stroke-linejoin="miter" stroke-miterlimit="10" stroke="none" stroke-linecap="square" stroke-opacity="1" points=" 8,5 8,8 5,8 " data-color="color-2" fill="#000000" fill-rule="nonzero" stroke-dasharray="none" fill-opacity="1" d="M17.119,11.769L17.119,18.188L18.188,17.119L11.769,17.119L10.699,17.119L10.699,19.258L11.769,19.258L18.188,19.258L19.258,19.258L19.258,18.188L19.258,11.769L19.258,10.699L17.119,10.699L17.119,11.769Z"/>
  <path fill-rule="nonzero" stroke-miterlimit="10" fill="#000000" stroke-linecap="square" stroke-linejoin="miter" stroke-width="1px" fill-opacity="1" data-color="color-2" stroke-opacity="1" stroke-dasharray="none" stroke="none" d="M18.188,32.097C10.507,32.097,4.28,25.87,4.28,18.188C4.28,10.507,10.507,4.28,18.188,4.28C24.384,4.28,29.782,8.368,31.521,14.216L31.826,15.241L33.877,14.632L33.572,13.606C31.565,6.856,25.337,2.14,18.188,2.14C9.325,2.14,2.14,9.325,2.14,18.188C2.14,27.052,9.325,34.237,18.188,34.237L19.258,34.237L19.258,32.097L18.188,32.097Z"/>
</g>
  <g id="Light-M" transform="matrix(1.0,0.0,0.0,1.0,1128.7421716700073,1065.0921912012573)">  <path stroke-miterlimit="10" stroke="none" fill-opacity="1" stroke-linejoin="miter" stroke-dasharray="none" fill="#000000" stroke-width="1px" stroke-opacity="1" data-cap="butt" stroke-linecap="butt" fill-rule="nonzero" d="M23.716,26.748L23.716,35.307C23.716,39.513,29.926,42.618,37.447,42.618C44.967,42.618,51.177,39.513,51.177,35.307L51.177,26.748L49.394,26.748L49.394,35.307C49.394,38.192,44.109,40.835,37.447,40.835C30.785,40.835,25.5,38.192,25.5,35.307L25.5,26.748L23.716,26.748Z"/>
  <path stroke-width="1px" stroke-linejoin="miter" stroke-miterlimit="10" stroke-dasharray="none" data-cap="butt" stroke-opacity="1" fill="#000000" fill-opacity="1" stroke="none" fill-rule="nonzero" stroke-linecap="butt" d="M23.716,35.307L23.716,43.866C23.716,48.072,29.926,51.177,37.447,51.177C44.967,51.177,51.177,48.072,51.177,43.866L51.177,35.307L49.394,35.307L49.394,43.866C49.394,46.752,44.109,49.394,37.447,49.394C30.785,49.394,25.5,46.752,25.5,43.866L25.5,35.307L23.716,35.307Z"/>
  <path cy="12" stroke="none" stroke-miterlimit="10" ry="3" cx="17" stroke-linejoin="miter" fill-opacity="1" stroke-linecap="square" stroke-opacity="1" rx="6" fill-rule="nonzero" stroke-dasharray="none" stroke-width="1px" fill="#000000" d="M49.394,26.748C49.394,29.633,44.108,32.276,37.447,32.276C30.785,32.276,25.5,29.633,25.5,26.748C25.5,23.863,30.785,21.22,37.447,21.22C44.108,21.22,49.394,23.863,49.394,26.748ZM51.177,26.748C51.177,22.542,44.967,19.437,37.447,19.437C29.927,19.437,23.716,22.542,23.716,26.748C23.716,30.954,29.927,34.059,37.447,34.059C44.967,34.059,51.177,30.954,51.177,26.748Z"/>
  <path fill-opacity="1" stroke-miterlimit="10" stroke="none" stroke-dasharray="none" stroke-width="1px" data-color="color-2" stroke-linejoin="miter" stroke-linecap="square" fill-rule="nonzero" fill="#000000" stroke-opacity="1" points=" 8,5 8,8 5,8 " d="M17.297,11.769L17.297,18.188L18.188,17.297L11.769,17.297L10.877,17.297L10.877,19.08L11.769,19.08L18.188,19.08L19.08,19.08L19.08,18.188L19.08,11.769L19.08,10.877L17.297,10.877L17.297,11.769Z"/>
  <path fill-rule="nonzero" stroke-linejoin="miter" fill="#000000" data-color="color-2" stroke-opacity="1" stroke-linecap="square" stroke-dasharray="none" fill-opacity="1" stroke-miterlimit="10" stroke="none" stroke-width="1px" d="M18.188,32.276C10.408,32.276,4.101,25.969,4.101,18.188C4.101,10.408,10.408,4.101,18.188,4.101C24.463,4.101,29.931,8.242,31.692,14.165L31.946,15.02L33.655,14.511L33.401,13.657C31.416,6.982,25.258,2.318,18.188,2.318C9.424,2.318,2.318,9.424,2.318,18.188C2.318,26.953,9.424,34.059,18.188,34.059L19.08,34.059L19.08,32.276L18.188,32.276Z"/>
</g>
  <g id="Thin-M" transform="matrix(1.0,0.0,0.0,1.0,832.0321716700073,1065.0921912012573)">  <path stroke-miterlimit="10" stroke-opacity="1" fill-rule="nonzero" stroke-linecap="butt" stroke="none" stroke-width="1px" data-cap="butt" fill="#000000" stroke-linejoin="miter" fill-opacity="1" stroke-dasharray="none" d="M23.895,26.748L23.895,35.307C23.895,39.381,30.012,42.44,37.447,42.44C44.882,42.44,50.999,39.381,50.999,35.307L50.999,26.748L49.572,26.748L49.572,35.307C49.572,38.324,44.195,41.013,37.447,41.013C30.699,41.013,25.321,38.324,25.321,35.307L25.321,26.748L23.895,26.748Z"/>
  <path stroke-width="1px" stroke-dasharray="none" fill-opacity="1" fill-rule="nonzero" stroke-opacity="1" stroke-linejoin="miter" data-cap="butt" stroke-linecap="butt" stroke-miterlimit="10" stroke="none" fill="#000000" d="M23.895,35.307L23.895,43.866C23.895,47.94,30.012,50.999,37.447,50.999C44.882,50.999,50.999,47.94,50.999,43.866L50.999,35.307L49.572,35.307L49.572,43.866C49.572,46.884,44.195,49.572,37.447,49.572C30.699,49.572,25.321,46.884,25.321,43.866L25.321,35.307L23.895,35.307Z"/>
  <path stroke-opacity="1" stroke-miterlimit="10" stroke-linecap="square" fill-rule="nonzero" fill-opacity="1" stroke-width="1px" rx="6" stroke-linejoin="miter" stroke-dasharray="none" cx="17" ry="3" fill="#000000" stroke="none" cy="12" d="M49.572,26.748C49.572,29.765,44.194,32.454,37.447,32.454C30.699,32.454,25.321,29.765,25.321,26.748C25.321,23.731,30.699,21.042,37.447,21.042C44.194,21.042,49.572,23.731,49.572,26.748ZM50.999,26.748C50.999,22.674,44.881,19.615,37.447,19.615C30.013,19.615,23.895,22.674,23.895,26.748C23.895,30.821,30.013,33.88,37.447,33.88C44.881,33.88,50.999,30.821,50.999,26.748Z"/>
  <path stroke-opacity="1" points=" 8,5 8,8 5,8 " stroke-linejoin="miter" stroke-dasharray="none" stroke-linecap="square" fill="#000000" fill-rule="nonzero" fill-opacity="1" data-color="color-2" stroke-miterlimit="10" stroke="none" stroke-width="1px" d="M17.475,11.769L17.475,18.188L18.188,17.475L11.769,17.475L11.056,17.475L11.056,18.902L11.769,18.902L18.188,18.902L18.902,18.902L18.902,18.188L18.902,11.769L18.902,11.056L17.475,11.056L17.475,11.769Z"/>
  <path stroke-opacity="1" fill-rule="nonzero" stroke-width="1px" stroke-linecap="square" fill="#000000" fill-opacity="1" stroke-dasharray="none" stroke-miterlimit="10" data-color="color-2" stroke="none" stroke-linejoin="miter" d="M18.188,32.454C10.31,32.454,3.923,26.067,3.923,18.188C3.923,10.31,10.31,3.923,18.188,3.923C24.543,3.923,30.079,8.116,31.863,14.114L32.066,14.798L33.434,14.391L33.23,13.708C31.268,7.108,25.178,2.496,18.188,2.496C9.522,2.496,2.496,9.522,2.496,18.188C2.496,26.855,9.522,33.88,18.188,33.88L18.902,33.88L18.902,32.454L18.188,32.454Z"/>
</g>
  <g id="Ultralight-M" transform="matrix(1.0,0.0,0.0,1.0,535.3221716700073,1065.0921912012573)">  <path fill-opacity="1" stroke-width="1px" stroke-opacity="1" stroke="none" stroke-dasharray="none" stroke-linecap="butt" data-cap="butt" fill="#000000" fill-rule="nonzero" stroke-linejoin="miter" stroke-miterlimit="10" d="M24.073,26.748L24.073,35.307C24.073,39.249,30.098,42.261,37.447,42.261C44.796,42.261,50.821,39.249,50.821,35.307L50.821,26.748L49.751,26.748L49.751,35.307C49.751,38.456,44.281,41.192,37.447,41.192C30.613,41.192,25.143,38.456,25.143,35.307L25.143,26.748L24.073,26.748Z"/>
  <path fill="#000000" fill-opacity="1" stroke="none" stroke-miterlimit="10" stroke-linejoin="miter" fill-rule="nonzero" stroke-width="1px" stroke-linecap="butt" data-cap="butt" stroke-opacity="1" stroke-dasharray="none" d="M24.073,35.307L24.073,43.866C24.073,47.808,30.098,50.821,37.447,50.821C44.796,50.821,50.821,47.808,50.821,43.866L50.821,35.307L49.751,35.307L49.751,43.866C49.751,47.016,44.281,49.751,37.447,49.751C30.613,49.751,25.143,47.016,25.143,43.866L25.143,35.307L24.073,35.307Z"/>
  <path cx="17" ry="3" stroke-linejoin="miter" stroke="none" stroke-dasharray="none" stroke-linecap="square" fill-opacity="1" fill="#000000" stroke-miterlimit="10" stroke-opacity="1" cy="12" fill-rule="nonzero" stroke-width="1px" rx="6" d="M49.751,26.748C49.751,29.897,44.28,32.632,37.447,32.632C30.614,32.632,25.143,29.897,25.143,26.748C25.143,23.599,30.614,20.863,37.447,20.863C44.28,20.863,49.751,23.599,49.751,26.748ZM50.821,26.748C50.821,22.806,44.795,19.793,37.447,19.793C30.099,19.793,24.073,22.806,24.073,26.748C24.073,30.689,30.099,33.702,37.447,33.702C44.795,33.702,50.821,30.689,50.821,26.748Z"/>
  <path fill-opacity="1" stroke-linejoin="miter" fill="#000000" points=" 8,5 8,8 5,8 " fill-rule="nonzero" stroke-miterlimit="10" data-color="color-2" stroke-width="1px" stroke="none" stroke-linecap="square" stroke-opacity="1" stroke-dasharray="none" d="M17.654,11.769L17.654,18.188L18.188,17.654L11.769,17.654L11.234,17.654L11.234,18.723L11.769,18.723L18.188,18.723L18.723,18.723L18.723,18.188L18.723,11.769L18.723,11.234L17.654,11.234L17.654,11.769Z"/>
  <path fill="#000000" fill-rule="nonzero" stroke-dasharray="none" stroke-linecap="square" stroke-linejoin="miter" stroke="none" stroke-opacity="1" stroke-width="1px" data-color="color-2" fill-opacity="1" stroke-miterlimit="10" d="M18.188,32.632C10.211,32.632,3.745,26.166,3.745,18.188C3.745,10.211,10.211,3.745,18.188,3.745C24.622,3.745,30.228,7.99,32.034,14.063L32.186,14.576L33.212,14.271L33.059,13.758C31.119,7.234,25.099,2.675,18.188,2.675C9.62,2.675,2.675,9.62,2.675,18.188C2.675,26.756,9.62,33.702,18.188,33.702L18.723,33.702L18.723,32.632L18.188,32.632Z"/>
</g>
  <g id="Black-S" transform="matrix(1.0,0.0,0.0,1.0,2914.5742604176157,640.6642799488657)">  <path data-cap="butt" stroke="none" stroke-width="1px" stroke-opacity="1" stroke-linecap="butt" fill-rule="nonzero" stroke-linejoin="miter" fill="#000000" fill-opacity="1" stroke-miterlimit="10" stroke-dasharray="none" d="M17.417,20.943L17.417,27.645C17.417,31.793,22.877,34.523,29.321,34.523C35.765,34.523,41.225,31.793,41.225,27.645L41.225,20.943L37.522,20.943L37.522,27.645C37.522,29.05,33.982,30.82,29.321,30.82C24.66,30.82,21.119,29.05,21.119,27.645L21.119,20.943L17.417,20.943Z"/>
  <path stroke-linecap="butt" fill-rule="nonzero" stroke="none" fill-opacity="1" stroke-width="1px" stroke-dasharray="none" data-cap="butt" stroke-linejoin="miter" fill="#000000" stroke-opacity="1" stroke-miterlimit="10" d="M17.417,27.645L17.417,34.347C17.417,38.495,22.877,41.225,29.321,41.225C35.765,41.225,41.225,38.495,41.225,34.347L41.225,27.645L37.522,27.645L37.522,34.347C37.522,35.752,33.982,37.522,29.321,37.522C24.66,37.522,21.119,35.752,21.119,34.347L21.119,27.645L17.417,27.645Z"/>
  <path rx="6" ry="3" stroke-width="1px" fill-rule="nonzero" fill="#000000" stroke-linejoin="miter" stroke-dasharray="none" stroke="none" cx="17" fill-opacity="1" stroke-linecap="square" cy="12" stroke-opacity="1" stroke-miterlimit="10" d="M37.522,20.943C37.522,22.348,33.982,24.119,29.321,24.119C24.66,24.119,21.119,22.348,21.119,20.943C21.119,19.539,24.66,17.768,29.321,17.768C33.982,17.768,37.522,19.539,37.522,20.943ZM41.225,20.943C41.225,16.796,35.764,14.066,29.321,14.066C22.878,14.066,17.417,16.796,17.417,20.943C17.417,25.091,22.878,27.821,29.321,27.821C35.764,27.821,41.225,25.091,41.225,20.943Z"/>
  <path fill-rule="nonzero" stroke-linecap="square" stroke-miterlimit="10" stroke-opacity="1" stroke-linejoin="miter" fill="#000000" stroke-dasharray="none" fill-opacity="1" data-color="color-2" stroke="none" stroke-width="1px" points=" 8,5 8,8 5,8 " d="M12.39,9.215L12.39,14.242L14.242,12.39L9.215,12.39L7.364,12.39L7.364,16.093L9.215,16.093L14.242,16.093L16.093,16.093L16.093,14.242L16.093,9.215L16.093,7.364L12.39,7.364L12.39,9.215Z"/>
  <path fill-opacity="1" stroke-linecap="square" data-color="color-2" stroke="none" stroke-width="1px" stroke-linejoin="miter" stroke-opacity="1" stroke-dasharray="none" fill-rule="nonzero" stroke-miterlimit="10" fill="#000000" d="M14.242,24.119C8.787,24.119,4.365,19.696,4.365,14.242C4.365,8.787,8.787,4.365,14.242,4.365C18.641,4.365,22.475,7.268,23.709,11.42L24.237,13.195L27.786,12.139L27.259,10.365C25.56,4.652,20.29,0.662,14.242,0.662C6.742,0.662,0.662,6.742,0.662,14.242C0.662,21.741,6.742,27.821,14.242,27.821L16.093,27.821L16.093,24.119L14.242,24.119Z"/>
</g>
  <g id="Heavy-S" transform="matrix(1.0,0.0,0.0,1.0,2617.8642604176157,640.6642799488657)">  <path stroke-opacity="1" data-cap="butt" stroke-linejoin="miter" stroke-width="1px" fill="#000000" stroke="none" stroke-dasharray="none" fill-opacity="1" stroke-miterlimit="10" fill-rule="nonzero" stroke-linecap="butt" d="M17.619,20.943L17.619,27.645C17.619,31.643,22.975,34.32,29.321,34.32C35.667,34.32,41.022,31.643,41.022,27.645L41.022,20.943L37.725,20.943L37.725,27.645C37.725,29.2,34.08,31.023,29.321,31.023C24.562,31.023,20.917,29.2,20.917,27.645L20.917,20.943L17.619,20.943Z"/>
  <path stroke-linejoin="miter" stroke-linecap="butt" fill-opacity="1" fill="#000000" stroke-width="1px" fill-rule="nonzero" stroke-dasharray="none" stroke-miterlimit="10" stroke-opacity="1" stroke="none" data-cap="butt" d="M17.619,27.645L17.619,34.347C17.619,38.345,22.975,41.022,29.321,41.022C35.667,41.022,41.022,38.345,41.022,34.347L41.022,27.645L37.725,27.645L37.725,34.347C37.725,35.902,34.08,37.725,29.321,37.725C24.562,37.725,20.917,35.902,20.917,34.347L20.917,27.645L17.619,27.645Z"/>
  <path stroke-miterlimit="10" fill="#000000" stroke-opacity="1" fill-rule="nonzero" stroke-dasharray="none" stroke="none" rx="6" ry="3" stroke-linejoin="miter" stroke-linecap="square" cy="12" fill-opacity="1" cx="17" stroke-width="1px" d="M37.725,20.943C37.725,22.498,34.079,24.321,29.321,24.321C24.563,24.321,20.917,22.498,20.917,20.943C20.917,19.389,24.563,17.566,29.321,17.566C34.079,17.566,37.725,19.389,37.725,20.943ZM41.022,20.943C41.022,16.946,35.667,14.268,29.321,14.268C22.975,14.268,17.619,16.946,17.619,20.943C17.619,24.941,22.975,27.619,29.321,27.619C35.667,27.619,41.022,24.941,41.022,20.943Z"/>
  <path stroke-opacity="1" stroke="none" stroke-width="1px" stroke-miterlimit="10" data-color="color-2" stroke-dasharray="none" fill="#000000" stroke-linejoin="miter" stroke-linecap="square" points=" 8,5 8,8 5,8 " fill-rule="nonzero" fill-opacity="1" d="M12.593,9.215L12.593,14.242L14.242,12.593L9.215,12.593L7.566,12.593L7.566,15.89L9.215,15.89L14.242,15.89L15.89,15.89L15.89,14.242L15.89,9.215L15.89,7.566L12.593,7.566L12.593,9.215Z"/>
  <path stroke-linejoin="miter" stroke="none" stroke-dasharray="none" stroke-opacity="1" stroke-width="1px" fill="#000000" fill-opacity="1" fill-rule="nonzero" stroke-miterlimit="10" data-color="color-2" stroke-linecap="square" d="M14.242,24.321C8.675,24.321,4.162,19.808,4.162,14.242C4.162,8.675,8.675,4.162,14.242,4.162C18.731,4.162,22.644,7.125,23.904,11.362L24.374,12.942L27.534,12.003L27.064,10.422C25.391,4.795,20.2,0.865,14.242,0.865C6.854,0.865,0.865,6.854,0.865,14.242C0.865,21.63,6.854,27.619,14.242,27.619L15.89,27.619L15.89,24.321L14.242,24.321Z"/>
</g>
  <g id="Bold-S" transform="matrix(1.0,0.0,0.0,1.0,2321.1542604176157,640.6642799488657)">  <path fill="#000000" stroke-dasharray="none" fill-rule="nonzero" stroke-opacity="1" stroke="none" data-cap="butt" stroke-miterlimit="10" stroke-linejoin="miter" stroke-linecap="butt" fill-opacity="1" stroke-width="1px" d="M17.822,20.943L17.822,27.645C17.822,31.493,23.072,34.118,29.321,34.118C35.57,34.118,40.82,31.493,40.82,27.645L40.82,20.943L37.928,20.943L37.928,27.645C37.928,29.351,34.177,31.226,29.321,31.226C24.464,31.226,20.714,29.351,20.714,27.645L20.714,20.943L17.822,20.943Z"/>
  <path data-cap="butt" fill-opacity="1" fill="#000000" stroke-width="1px" stroke-linejoin="miter" stroke-opacity="1" stroke="none" stroke-linecap="butt" fill-rule="nonzero" stroke-miterlimit="10" stroke-dasharray="none" d="M17.822,27.645L17.822,34.347C17.822,38.195,23.072,40.82,29.321,40.82C35.57,40.82,40.82,38.195,40.82,34.347L40.82,27.645L37.928,27.645L37.928,34.347C37.928,36.053,34.177,37.928,29.321,37.928C24.464,37.928,20.714,36.053,20.714,34.347L20.714,27.645L17.822,27.645Z"/>
  <path stroke-width="1px" stroke-dasharray="none" ry="3" fill="#000000" stroke-linejoin="miter" stroke="none" fill-opacity="1" fill-rule="nonzero" cy="12" rx="6" stroke-miterlimit="10" cx="17" stroke-linecap="square" stroke-opacity="1" d="M37.928,20.943C37.928,22.648,34.177,24.524,29.321,24.524C24.465,24.524,20.714,22.648,20.714,20.943C20.714,19.238,24.465,17.363,29.321,17.363C34.177,17.363,37.928,19.238,37.928,20.943ZM40.82,20.943C40.82,17.096,35.569,14.471,29.321,14.471C23.073,14.471,17.822,17.096,17.822,20.943C17.822,24.791,23.073,27.416,29.321,27.416C35.569,27.416,40.82,24.791,40.82,20.943Z"/>
  <path stroke="none" fill-opacity="1" stroke-linecap="square" data-color="color-2" stroke-opacity="1" fill-rule="nonzero" stroke-width="1px" points=" 8,5 8,8 5,8 " fill="#000000" stroke-linejoin="miter" stroke-dasharray="none" stroke-miterlimit="10" d="M12.796,9.215L12.796,14.242L14.242,12.796L9.215,12.796L7.769,12.796L7.769,15.688L9.215,15.688L14.242,15.688L15.688,15.688L15.688,14.242L15.688,9.215L15.688,7.769L12.796,7.769L12.796,9.215Z"/>
  <path stroke-miterlimit="10" fill-opacity="1" data-color="color-2" stroke-linejoin="miter" fill-rule="nonzero" stroke-dasharray="none" stroke-linecap="square" stroke-opacity="1" stroke="none" stroke-width="1px" fill="#000000" d="M14.242,24.524C8.563,24.524,3.959,19.92,3.959,14.242C3.959,8.563,8.563,3.959,14.242,3.959C18.822,3.959,22.813,6.981,24.098,11.304L24.51,12.69L27.282,11.866L26.87,10.48C25.222,4.939,20.11,1.067,14.242,1.067C6.966,1.067,1.067,6.966,1.067,14.242C1.067,21.518,6.966,27.416,14.242,27.416L15.688,27.416L15.688,24.524L14.242,24.524Z"/>
</g>
  <g id="Semibold-S" transform="matrix(1.0,0.0,0.0,1.0,2024.4442604176156,640.6642799488657)">  <path fill-opacity="1" fill-rule="nonzero" stroke-width="1px" fill="#000000" data-cap="butt" stroke-opacity="1" stroke-dasharray="none" stroke-linejoin="miter" stroke-linecap="butt" stroke="none" stroke-miterlimit="10" d="M18.025,20.943L18.025,27.645C18.025,31.343,23.17,33.915,29.321,33.915C35.472,33.915,40.617,31.343,40.617,27.645L40.617,20.943L38.131,20.943L38.131,27.645C38.131,29.501,34.275,31.429,29.321,31.429C24.367,31.429,20.511,29.501,20.511,27.645L20.511,20.943L18.025,20.943Z"/>
  <path stroke-linejoin="miter" stroke-linecap="butt" stroke-opacity="1" data-cap="butt" stroke="none" stroke-dasharray="none" stroke-miterlimit="10" fill="#000000" fill-opacity="1" stroke-width="1px" fill-rule="nonzero" d="M18.025,27.645L18.025,34.347C18.025,38.044,23.17,40.617,29.321,40.617C35.472,40.617,40.617,38.044,40.617,34.347L40.617,27.645L38.131,27.645L38.131,34.347C38.131,36.203,34.275,38.131,29.321,38.131C24.367,38.131,20.511,36.203,20.511,34.347L20.511,27.645L18.025,27.645Z"/>
  <path stroke-miterlimit="10" stroke-dasharray="none" stroke="none" stroke-width="1px" cy="12" fill-opacity="1" ry="3" fill-rule="nonzero" stroke-opacity="1" stroke-linejoin="miter" rx="6" stroke-linecap="square" fill="#000000" cx="17" d="M38.131,20.943C38.131,22.799,34.274,24.727,29.321,24.727C24.367,24.727,20.511,22.799,20.511,20.943C20.511,19.088,24.367,17.16,29.321,17.16C34.274,17.16,38.131,19.088,38.131,20.943ZM40.617,20.943C40.617,17.247,35.471,14.674,29.321,14.674C23.17,14.674,18.025,17.247,18.025,20.943C18.025,24.64,23.17,27.213,29.321,27.213C35.471,27.213,40.617,24.64,40.617,20.943Z"/>
  <path points=" 8,5 8,8 5,8 " stroke-width="1px" fill-opacity="1" stroke-linecap="square" stroke="none" stroke-dasharray="none" fill="#000000" stroke-miterlimit="10" stroke-linejoin="miter" data-color="color-2" stroke-opacity="1" fill-rule="nonzero" d="M12.998,9.215L12.998,14.242L14.242,12.998L9.215,12.998L7.972,12.998L7.972,15.485L9.215,15.485L14.242,15.485L15.485,15.485L15.485,14.242L15.485,9.215L15.485,7.972L12.998,7.972L12.998,9.215Z"/>
  <path fill-opacity="1" stroke-opacity="1" stroke-width="1px" stroke-miterlimit="10" stroke="none" data-color="color-2" stroke-linejoin="miter" stroke-linecap="square" stroke-dasharray="none" fill="#000000" fill-rule="nonzero" d="M14.242,24.727C8.451,24.727,3.756,20.032,3.756,14.242C3.756,8.451,8.451,3.756,14.242,3.756C18.912,3.756,22.981,6.838,24.292,11.247L24.647,12.438L27.03,11.73L26.676,10.538C25.053,5.082,20.02,1.27,14.242,1.27C7.078,1.27,1.27,7.078,1.27,14.242C1.27,21.406,7.078,27.213,14.242,27.213L15.485,27.213L15.485,24.727L14.242,24.727Z"/>
</g>
  <g id="Medium-S" transform="matrix(1.0,0.0,0.0,1.0,1727.7342604176156,640.6642799488657)">  <path stroke-linejoin="miter" stroke-linecap="butt" fill="#000000" stroke-width="1px" data-cap="butt" stroke-opacity="1" fill-opacity="1" stroke-dasharray="none" stroke-miterlimit="10" fill-rule="nonzero" stroke="none" d="M18.228,20.943L18.228,27.645C18.228,31.192,23.267,33.712,29.321,33.712C35.374,33.712,40.414,31.192,40.414,27.645L40.414,20.943L38.333,20.943L38.333,27.645C38.333,29.651,34.372,31.631,29.321,31.631C24.269,31.631,20.308,29.651,20.308,27.645L20.308,20.943L18.228,20.943Z"/>
  <path stroke-opacity="1" stroke="none" stroke-miterlimit="10" stroke-linecap="butt" data-cap="butt" stroke-dasharray="none" fill-rule="nonzero" stroke-linejoin="miter" stroke-width="1px" fill="#000000" fill-opacity="1" d="M18.228,27.645L18.228,34.347C18.228,37.894,23.267,40.414,29.321,40.414C35.374,40.414,40.414,37.894,40.414,34.347L40.414,27.645L38.333,27.645L38.333,34.347C38.333,36.353,34.372,38.333,29.321,38.333C24.269,38.333,20.308,36.353,20.308,34.347L20.308,27.645L18.228,27.645Z"/>
  <path rx="6" fill-opacity="1" fill="#000000" ry="3" stroke="none" cx="17" stroke-opacity="1" fill-rule="nonzero" stroke-miterlimit="10" cy="12" stroke-dasharray="none" stroke-linejoin="miter" stroke-width="1px" stroke-linecap="square" d="M38.333,20.943C38.333,22.949,34.372,24.929,29.321,24.929C24.27,24.929,20.308,22.949,20.308,20.943C20.308,18.938,24.27,16.958,29.321,16.958C34.372,16.958,38.333,18.938,38.333,20.943ZM40.414,20.943C40.414,17.397,35.374,14.877,29.321,14.877C23.268,14.877,18.228,17.397,18.228,20.943C18.228,24.49,23.268,27.01,29.321,27.01C35.374,27.01,40.414,24.49,40.414,20.943Z"/>
  <path stroke-dasharray="none" points=" 8,5 8,8 5,8 " stroke="none" fill-opacity="1" data-color="color-2" stroke-miterlimit="10" stroke-linecap="square" stroke-opacity="1" fill="#000000" stroke-linejoin="miter" fill-rule="nonzero" stroke-width="1px" d="M13.201,9.215L13.201,14.242L14.242,13.201L9.215,13.201L8.175,13.201L8.175,15.282L9.215,15.282L14.242,15.282L15.282,15.282L15.282,14.242L15.282,9.215L15.282,8.175L13.201,8.175L13.201,9.215Z"/>
  <path stroke-linejoin="miter" stroke-linecap="square" stroke-opacity="1" fill-opacity="1" fill-rule="nonzero" stroke-miterlimit="10" data-color="color-2" stroke-dasharray="none" stroke-width="1px" fill="#000000" stroke="none" d="M14.242,24.929C8.339,24.929,3.554,20.144,3.554,14.242C3.554,8.339,8.339,3.554,14.242,3.554C19.002,3.554,23.15,6.695,24.487,11.189L24.783,12.186L26.778,11.593L26.481,10.596C24.884,5.225,19.929,1.473,14.242,1.473C7.19,1.473,1.473,7.19,1.473,14.242C1.473,21.294,7.19,27.01,14.242,27.01L15.282,27.01L15.282,24.929L14.242,24.929Z"/>
</g>
  <g id="Regular-S" transform="matrix(1.0,0.0,0.0,1.0,1431.0242604176156,640.6642799488657)">  <path fill-rule="nonzero" stroke="none" stroke-linejoin="miter" stroke-miterlimit="10" stroke-opacity="1" data-cap="butt" fill-opacity="1" stroke-dasharray="none" fill="#000000" stroke-width="1px" stroke-linecap="butt" d="M18.43,20.943L18.43,27.645C18.43,31.042,23.365,33.51,29.321,33.51C35.277,33.51,40.211,31.042,40.211,27.645L40.211,20.943L38.536,20.943L38.536,27.645C38.536,29.801,34.47,31.834,29.321,31.834C24.172,31.834,20.106,29.801,20.106,27.645L20.106,20.943L18.43,20.943Z"/>
  <path stroke-dasharray="none" fill-rule="nonzero" fill-opacity="1" stroke="none" stroke-width="1px" data-cap="butt" stroke-linecap="butt" stroke-miterlimit="10" stroke-linejoin="miter" stroke-opacity="1" fill="#000000" d="M18.43,27.645L18.43,34.347C18.43,37.744,23.365,40.211,29.321,40.211C35.277,40.211,40.211,37.744,40.211,34.347L40.211,27.645L38.536,27.645L38.536,34.347C38.536,36.503,34.47,38.536,29.321,38.536C24.172,38.536,20.106,36.503,20.106,34.347L20.106,27.645L18.43,27.645Z"/>
  <path fill-rule="nonzero" stroke-opacity="1" stroke-linejoin="miter" stroke="none" stroke-dasharray="none" rx="6" fill="#000000" stroke-linecap="square" stroke-miterlimit="10" fill-opacity="1" cx="17" cy="12" ry="3" stroke-width="1px" d="M38.536,20.943C38.536,23.099,34.47,25.132,29.321,25.132C24.172,25.132,20.106,23.099,20.106,20.943C20.106,18.788,24.172,16.755,29.321,16.755C34.47,16.755,38.536,18.788,38.536,20.943ZM40.211,20.943C40.211,17.547,35.276,15.079,29.321,15.079C23.366,15.079,18.43,17.547,18.43,20.943C18.43,24.34,23.366,26.808,29.321,26.808C35.276,26.808,40.211,24.34,40.211,20.943Z"/>
  <path stroke-width="1px" stroke-linejoin="miter" stroke-miterlimit="10" stroke="none" stroke-linecap="square" stroke-opacity="1" points=" 8,5 8,8 5,8 " data-color="color-2" fill="#000000" fill-rule="nonzero" stroke-dasharray="none" fill-opacity="1" d="M13.404,9.215L13.404,14.242L14.242,13.404L9.215,13.404L8.377,13.404L8.377,15.079L9.215,15.079L14.242,15.079L15.079,15.079L15.079,14.242L15.079,9.215L15.079,8.377L13.404,8.377L13.404,9.215Z"/>
  <path fill-rule="nonzero" stroke-miterlimit="10" fill="#000000" stroke-linecap="square" stroke-linejoin="miter" stroke-width="1px" fill-opacity="1" data-color="color-2" stroke-opacity="1" stroke-dasharray="none" stroke="none" d="M14.242,25.132C8.227,25.132,3.351,20.256,3.351,14.242C3.351,8.227,8.227,3.351,14.242,3.351C19.093,3.351,23.319,6.552,24.681,11.131L24.92,11.934L26.526,11.456L26.287,10.653C24.715,5.368,19.839,1.675,14.242,1.675C7.301,1.675,1.675,7.301,1.675,14.242C1.675,21.182,7.301,26.808,14.242,26.808L15.079,26.808L15.079,25.132L14.242,25.132Z"/>
</g>
  <g id="Light-S" transform="matrix(1.0,0.0,0.0,1.0,1134.3142604176157,640.6642799488657)">  <path stroke-miterlimit="10" stroke="none" fill-opacity="1" stroke-linejoin="miter" stroke-dasharray="none" fill="#000000" stroke-width="1px" stroke-opacity="1" data-cap="butt" stroke-linecap="butt" fill-rule="nonzero" d="M18.57,20.943L18.57,27.645C18.57,30.939,23.432,33.37,29.321,33.37C35.209,33.37,40.072,30.939,40.072,27.645L40.072,20.943L38.676,20.943L38.676,27.645C38.676,29.905,34.537,31.974,29.321,31.974C24.104,31.974,19.966,29.905,19.966,27.645L19.966,20.943L18.57,20.943Z"/>
  <path stroke-width="1px" stroke-linejoin="miter" stroke-miterlimit="10" stroke-dasharray="none" data-cap="butt" stroke-opacity="1" fill="#000000" fill-opacity="1" stroke="none" fill-rule="nonzero" stroke-linecap="butt" d="M18.57,27.645L18.57,34.347C18.57,37.641,23.432,40.072,29.321,40.072C35.209,40.072,40.072,37.641,40.072,34.347L40.072,27.645L38.676,27.645L38.676,34.347C38.676,36.606,34.537,38.676,29.321,38.676C24.104,38.676,19.966,36.606,19.966,34.347L19.966,27.645L18.57,27.645Z"/>
  <path cy="12" stroke="none" stroke-miterlimit="10" ry="3" cx="17" stroke-linejoin="miter" fill-opacity="1" stroke-linecap="square" stroke-opacity="1" rx="6" fill-rule="nonzero" stroke-dasharray="none" stroke-width="1px" fill="#000000" d="M38.676,20.943C38.676,23.202,34.537,25.272,29.321,25.272C24.105,25.272,19.966,23.202,19.966,20.943C19.966,18.685,24.105,16.615,29.321,16.615C34.537,16.615,38.676,18.685,38.676,20.943ZM40.072,20.943C40.072,17.65,35.209,15.219,29.321,15.219C23.433,15.219,18.57,17.65,18.57,20.943C18.57,24.237,23.433,26.668,29.321,26.668C35.209,26.668,40.072,24.237,40.072,20.943Z"/>
  <path fill-opacity="1" stroke-miterlimit="10" stroke="none" stroke-dasharray="none" stroke-width="1px" data-color="color-2" stroke-linejoin="miter" stroke-linecap="square" fill-rule="nonzero" fill="#000000" stroke-opacity="1" points=" 8,5 8,8 5,8 " d="M13.543,9.215L13.543,14.242L14.242,13.543L9.215,13.543L8.517,13.543L8.517,14.94L9.215,14.94L14.242,14.94L14.94,14.94L14.94,14.242L14.94,9.215L14.94,8.517L13.543,8.517L13.543,9.215Z"/>
  <path fill-rule="nonzero" stroke-linejoin="miter" fill="#000000" data-color="color-2" stroke-opacity="1" stroke-linecap="square" stroke-dasharray="none" fill-opacity="1" stroke-miterlimit="10" stroke="none" stroke-width="1px" d="M14.242,25.272C8.15,25.272,3.211,20.333,3.211,14.242C3.211,8.15,8.15,3.211,14.242,3.211C19.155,3.211,23.436,6.453,24.815,11.091L25.014,11.76L26.352,11.362L26.153,10.693C24.599,5.467,19.777,1.815,14.242,1.815C7.379,1.815,1.815,7.379,1.815,14.242C1.815,21.105,7.379,26.668,14.242,26.668L14.94,26.668L14.94,25.272L14.242,25.272Z"/>
</g>
  <g id="Thin-S" transform="matrix(1.0,0.0,0.0,1.0,837.6042604176157,640.6642799488657)">  <path stroke-miterlimit="10" stroke-opacity="1" fill-rule="nonzero" stroke-linecap="butt" stroke="none" stroke-width="1px" data-cap="butt" fill="#000000" stroke-linejoin="miter" fill-opacity="1" stroke-dasharray="none" d="M18.71,20.943L18.71,27.645C18.71,30.835,23.499,33.23,29.321,33.23C35.142,33.23,39.932,30.835,39.932,27.645L39.932,20.943L38.815,20.943L38.815,27.645C38.815,30.008,34.605,32.113,29.321,32.113C24.037,32.113,19.826,30.008,19.826,27.645L19.826,20.943L18.71,20.943Z"/>
  <path stroke-width="1px" stroke-dasharray="none" fill-opacity="1" fill-rule="nonzero" stroke-opacity="1" stroke-linejoin="miter" data-cap="butt" stroke-linecap="butt" stroke-miterlimit="10" stroke="none" fill="#000000" d="M18.71,27.645L18.71,34.347C18.71,37.537,23.499,39.932,29.321,39.932C35.142,39.932,39.932,37.537,39.932,34.347L39.932,27.645L38.815,27.645L38.815,34.347C38.815,36.71,34.605,38.815,29.321,38.815C24.037,38.815,19.826,36.71,19.826,34.347L19.826,27.645L18.71,27.645Z"/>
  <path stroke-opacity="1" stroke-miterlimit="10" stroke-linecap="square" fill-rule="nonzero" fill-opacity="1" stroke-width="1px" rx="6" stroke-linejoin="miter" stroke-dasharray="none" cx="17" ry="3" fill="#000000" stroke="none" cy="12" d="M38.815,20.943C38.815,23.306,34.604,25.411,29.321,25.411C24.038,25.411,19.826,23.306,19.826,20.943C19.826,18.581,24.038,16.476,29.321,16.476C34.604,16.476,38.815,18.581,38.815,20.943ZM39.932,20.943C39.932,17.754,35.142,15.359,29.321,15.359C23.5,15.359,18.71,17.754,18.71,20.943C18.71,24.133,23.5,26.528,29.321,26.528C35.142,26.528,39.932,24.133,39.932,20.943Z"/>
  <path stroke-opacity="1" points=" 8,5 8,8 5,8 " stroke-linejoin="miter" stroke-dasharray="none" stroke-linecap="square" fill="#000000" fill-rule="nonzero" fill-opacity="1" data-color="color-2" stroke-miterlimit="10" stroke="none" stroke-width="1px" d="M13.683,9.215L13.683,14.242L14.242,13.683L9.215,13.683L8.657,13.683L8.657,14.8L9.215,14.8L14.242,14.8L14.8,14.8L14.8,14.242L14.8,9.215L14.8,8.657L13.683,8.657L13.683,9.215Z"/>
  <path stroke-opacity="1" fill-rule="nonzero" stroke-width="1px" stroke-linecap="square" fill="#000000" fill-opacity="1" stroke-dasharray="none" stroke-miterlimit="10" data-color="color-2" stroke="none" stroke-linejoin="miter" d="M14.242,25.411C8.073,25.411,3.072,20.411,3.072,14.242C3.072,8.073,8.073,3.072,14.242,3.072C19.217,3.072,23.552,6.355,24.949,11.051L25.108,11.587L26.179,11.268L26.019,10.733C24.483,5.565,19.715,1.955,14.242,1.955C7.456,1.955,1.955,7.456,1.955,14.242C1.955,21.027,7.456,26.528,14.242,26.528L14.8,26.528L14.8,25.411L14.242,25.411Z"/>
</g>
  <g id="Ultralight-S" transform="matrix(1.0,0.0,0.0,1.0,540.8942604176157,640.6642799488657)">  <path fill-opacity="1" stroke-width="1px" stroke-opacity="1" stroke="none" stroke-dasharray="none" stroke-linecap="butt" data-cap="butt" fill="#000000" fill-rule="nonzero" stroke-linejoin="miter" stroke-miterlimit="10" d="M18.849,20.943L18.849,27.645C18.849,30.732,23.567,33.091,29.321,33.091C35.075,33.091,39.793,30.732,39.793,27.645L39.793,20.943L38.955,20.943L38.955,27.645C38.955,30.111,34.672,32.253,29.321,32.253C23.97,32.253,19.687,30.111,19.687,27.645L19.687,20.943L18.849,20.943Z"/>
  <path fill="#000000" fill-opacity="1" stroke="none" stroke-miterlimit="10" stroke-linejoin="miter" fill-rule="nonzero" stroke-width="1px" stroke-linecap="butt" data-cap="butt" stroke-opacity="1" stroke-dasharray="none" d="M18.849,27.645L18.849,34.347C18.849,37.434,23.567,39.793,29.321,39.793C35.075,39.793,39.793,37.434,39.793,34.347L39.793,27.645L38.955,27.645L38.955,34.347C38.955,36.813,34.672,38.955,29.321,38.955C23.97,38.955,19.687,36.813,19.687,34.347L19.687,27.645L18.849,27.645Z"/>
  <path cx="17" ry="3" stroke-linejoin="miter" stroke="none" stroke-dasharray="none" stroke-linecap="square" fill-opacity="1" fill="#000000" stroke-miterlimit="10" stroke-opacity="1" cy="12" fill-rule="nonzero" stroke-width="1px" rx="6" d="M38.955,20.943C38.955,23.409,34.671,25.551,29.321,25.551C23.97,25.551,19.687,23.409,19.687,20.943C19.687,18.478,23.97,16.336,29.321,16.336C34.671,16.336,38.955,18.478,38.955,20.943ZM39.793,20.943C39.793,17.857,35.075,15.498,29.321,15.498C23.567,15.498,18.849,17.857,18.849,20.943C18.849,24.03,23.567,26.389,29.321,26.389C35.075,26.389,39.793,24.03,39.793,20.943Z"/>
  <path fill-opacity="1" stroke-linejoin="miter" fill="#000000" points=" 8,5 8,8 5,8 " fill-rule="nonzero" stroke-miterlimit="10" data-color="color-2" stroke-width="1px" stroke="none" stroke-linecap="square" stroke-opacity="1" stroke-dasharray="none" d="M13.823,9.215L13.823,14.242L14.242,13.823L9.215,13.823L8.796,13.823L8.796,14.66L9.215,14.66L14.242,14.66L14.66,14.66L14.66,14.242L14.66,9.215L14.66,8.796L13.823,8.796L13.823,9.215Z"/>
  <path fill="#000000" fill-rule="nonzero" stroke-dasharray="none" stroke-linecap="square" stroke-linejoin="miter" stroke="none" stroke-opacity="1" stroke-width="1px" data-color="color-2" fill-opacity="1" stroke-miterlimit="10" d="M14.242,25.551C7.996,25.551,2.932,20.488,2.932,14.242C2.932,7.996,7.996,2.932,14.242,2.932C19.279,2.932,23.668,6.256,25.083,11.012L25.202,11.413L26.005,11.174L25.886,10.773C24.366,5.664,19.652,2.094,14.242,2.094C7.533,2.094,2.094,7.533,2.094,14.242C2.094,20.95,7.533,26.389,14.242,26.389L14.66,26.389L14.66,25.551L14.242,25.551Z"/>
</g>
 </g>
</svg>
